<svg width="2532" height="1412" viewBox="0 0 2532 1412" fill="none" xmlns="http://www.w3.org/2000/svg">
<rect width="2532" height="1412" fill="white"/>
<rect x="70" y="98" width="1134" height="1268" rx="50" fill="#E1EDFF"/>
<path d="M402.96 279.768C389.328 279.768 380.496 270.296 380.496 255.64C380.496 241.112 389.648 231.448 403.344 231.448C414.416 231.448 422.672 237.912 424.272 247.96H415.632C414.032 242.52 409.36 239.32 403.152 239.32C394.512 239.32 389.072 245.592 389.072 255.576C389.072 265.496 394.576 271.896 403.152 271.896C409.488 271.896 414.352 268.568 415.888 263.384H424.4C422.608 273.24 414.032 279.768 402.96 279.768ZM474.435 255.576C474.435 269.784 465.091 279.768 451.651 279.768C438.275 279.768 429.059 269.848 429.059 255.576C429.059 241.368 438.339 231.384 451.715 231.384C465.091 231.384 474.435 241.304 474.435 255.576ZM465.795 255.576C465.795 245.592 460.291 239.256 451.715 239.256C443.139 239.256 437.635 245.592 437.635 255.576C437.635 265.56 443.139 271.896 451.715 271.896C460.291 271.896 465.795 265.432 465.795 255.576ZM492.867 279L475.203 232.216H483.907L494.147 259.16C495.171 261.976 496.067 264.728 497.091 268.504C498.243 264.408 499.203 261.528 500.099 259.16L510.211 232.216H518.723L501.315 279H492.867ZM553.615 279H524.559V232.216H553.615V239.768H532.751V251.8H551.439V259.032H532.751V271.448H553.615V279ZM570.689 279H562.497V232.216H580.353C590.977 232.216 597.185 237.592 597.185 246.808C597.185 253.08 594.241 257.56 588.737 259.8L597.633 279H588.673L580.737 261.528H570.689V279ZM570.689 239.512V254.296H580.353C585.537 254.296 588.609 251.544 588.609 246.808C588.609 242.136 585.537 239.512 580.353 239.512H570.689ZM634.428 279H605.372V232.216H634.428V239.768H613.564V251.8H632.252V259.032H613.564V271.448H634.428V279ZM660.141 279H643.309V232.216H659.693C673.517 232.216 683.053 241.752 683.053 255.704C683.053 269.464 673.709 279 660.141 279ZM658.925 239.768H651.501V271.448H659.373C668.717 271.448 674.413 265.432 674.413 255.704C674.413 245.784 668.589 239.768 658.925 239.768ZM721.054 279L703.39 232.216H712.094L722.334 259.16C723.358 261.976 724.254 264.728 725.278 268.504C726.43 264.408 727.39 261.528 728.286 259.16L738.398 232.216H746.91L729.502 279H721.054ZM749.966 279H741.454L758.35 232.216H766.734L783.63 279H774.99L771.214 268.184H753.742L749.966 279ZM761.486 246.168L756.174 261.272H768.846L763.47 246.168C763.086 244.952 762.638 243.544 762.51 242.584C762.318 243.48 761.934 244.888 761.486 246.168ZM787.239 261.912V232.216H795.431V261.4C795.431 268.12 799.079 271.832 805.735 271.832C812.391 271.832 816.103 268.056 816.103 261.4V232.216H824.295V261.912C824.295 272.856 817.127 279.768 805.735 279.768C794.407 279.768 787.239 272.92 787.239 261.912ZM842.564 232.216V271.448H862.148V279H834.372V232.216H842.564ZM859.776 239.768V232.216H895.36V239.768H881.664V279H873.472V239.768H859.776Z" fill="#09090B"/>
<path d="M340.108 1142H316.373C316.373 1142 316.373 1205.5 382.828 1205.5C316.373 1205.5 316.373 1269 316.373 1269H340.108C340.108 1269 340.307 1210.38 397.07 1210.38C349.602 1210.38 349.602 1269 349.602 1269H373.338C373.338 1269 368.591 1215.27 406.564 1215.27C377.731 1215.27 382.828 1269 382.828 1269H406.564C406.564 1269 387.575 1210.38 435.046 1210.38H458.778V1200.62H435.046C387.575 1200.62 406.564 1142 406.564 1142H382.828C382.828 1142 377.731 1195.73 406.564 1195.73C368.591 1195.73 373.338 1142 373.338 1142H349.602C349.602 1142 349.602 1200.62 397.07 1200.62C340.314 1200.62 340.108 1142 340.108 1142ZM916.956 1235.7C921.597 1239.51 927.631 1241.41 935.055 1241.41C942.397 1241.41 948.095 1239.64 952.145 1236.08C956.281 1232.52 958.348 1227.87 958.348 1222.11C958.348 1218.39 957.081 1215.12 954.551 1212.33C952.018 1209.45 948.727 1207.42 944.676 1206.23L930.627 1202.17C927.25 1201.15 925.565 1199.04 925.565 1195.82C925.565 1194.04 926.364 1192.6 927.967 1191.5C929.57 1190.32 931.595 1189.72 934.043 1189.72C937.252 1189.72 939.741 1190.45 941.512 1191.88C943.369 1193.24 944.299 1195.14 944.299 1197.6H957.843C957.843 1192.1 955.815 1187.65 951.764 1184.26C947.8 1180.88 942.061 1179.18 934.551 1179.18C927.885 1179.18 922.441 1180.88 918.223 1184.26C914.001 1187.57 911.893 1191.67 911.893 1196.58C911.893 1205.14 916.153 1210.6 924.676 1212.97L939.867 1217.16C942.819 1217.92 944.299 1220 944.299 1223.38C944.299 1225.5 943.537 1227.19 942.02 1228.46C940.499 1229.73 938.433 1230.36 935.817 1230.36C932.272 1230.36 929.361 1229.56 927.082 1227.95C924.888 1226.35 923.79 1224.27 923.79 1221.73H909.995C909.995 1227.23 912.315 1231.89 916.956 1235.7ZM902.272 1169.28C900.333 1171.23 897.885 1172.2 894.93 1172.2C891.978 1172.2 889.531 1171.23 887.588 1169.28C885.673 1167.31 884.626 1164.66 884.677 1161.91C884.677 1159.04 885.649 1156.62 887.588 1154.67C889.531 1152.64 891.978 1151.62 894.93 1151.62C897.885 1151.62 900.333 1152.64 902.272 1154.67C904.215 1156.62 905.183 1159.04 905.183 1161.91C905.183 1164.79 904.215 1167.25 902.272 1169.28ZM887.969 1239.9V1180.7H901.768V1239.9H887.969ZM837.711 1235.7C842.352 1239.51 848.386 1241.41 855.811 1241.41C863.153 1241.41 868.851 1239.64 872.901 1236.08C877.037 1232.52 879.103 1227.87 879.103 1222.11C879.103 1218.39 877.837 1215.12 875.307 1212.33C872.774 1209.45 869.482 1207.42 865.432 1206.23L851.383 1202.17C848.005 1201.15 846.317 1199.04 846.317 1195.82C846.317 1194.04 847.12 1192.6 848.723 1191.5C850.326 1190.32 852.351 1189.72 854.798 1189.72C858.007 1189.72 860.496 1190.45 862.267 1191.88C864.124 1193.24 865.051 1195.14 865.051 1197.6H878.595C878.595 1192.1 876.57 1187.65 872.52 1184.26C868.555 1180.88 862.816 1179.18 855.306 1179.18C848.64 1179.18 843.197 1180.88 838.978 1184.26C834.756 1187.57 832.649 1191.67 832.649 1196.58C832.649 1205.14 836.908 1210.6 845.431 1212.97L860.623 1217.16C863.575 1217.92 865.051 1220 865.051 1223.38C865.051 1225.5 864.292 1227.19 862.775 1228.46C861.255 1229.73 859.188 1230.36 856.573 1230.36C853.027 1230.36 850.116 1229.56 847.837 1227.95C845.644 1226.35 844.545 1224.27 844.545 1221.73H830.747C830.747 1227.23 833.071 1231.89 837.711 1235.7ZM808.67 1180.71H822.468V1240.14C822.468 1249.21 819.894 1256.23 814.745 1261.23C809.768 1265.8 803.102 1268.08 794.748 1268.08C786.053 1268.08 779.305 1266.05 774.493 1261.99C770.275 1258.26 768.081 1253.14 767.913 1246.62H781.835C782.171 1250.01 783.27 1252.51 785.127 1254.11C787.066 1255.81 790.189 1256.65 794.494 1256.65C798.88 1256.65 802.34 1255.22 804.873 1252.34C807.407 1249.54 808.67 1245.14 808.67 1239.13V1231.64C804.873 1238.16 798.544 1241.42 789.685 1241.42C782.679 1241.42 777.28 1239.18 773.48 1234.69C769.766 1230.12 767.913 1224.15 767.913 1216.78V1180.71H781.708V1213.85C781.708 1224.1 785.971 1229.22 794.494 1229.22C799.134 1229.22 802.635 1227.57 805 1224.27C807.448 1220.97 808.67 1216.65 808.67 1211.31V1180.71ZM742.087 1151V1239.9H755.886V1151H742.087Z" fill="#031B62"/>
<path d="M696.801 1241.41C687.596 1241.41 680.466 1238.49 675.407 1232.65C670.344 1226.8 667.814 1219.36 667.814 1210.29C667.814 1201.32 670.471 1193.91 675.781 1188.07C681.098 1182.15 688.231 1179.18 697.175 1179.18C701.14 1179.18 704.771 1180.03 708.06 1181.72C711.351 1183.42 713.888 1185.74 715.656 1188.7V1180.7H729.458V1239.89H715.656V1231.89C713.967 1234.77 711.314 1237.1 707.686 1238.88C704.143 1240.57 700.515 1241.42 696.801 1241.42V1241.41ZM698.82 1229.09C704.48 1229.09 708.777 1227.31 711.732 1223.76C714.774 1220.2 716.294 1215.71 716.294 1210.29C716.294 1204.88 714.774 1200.39 711.732 1196.83C708.777 1193.28 704.48 1191.5 698.826 1191.5C693.503 1191.5 689.284 1193.28 686.168 1196.83C683.13 1200.31 681.606 1204.79 681.606 1210.29C681.606 1215.8 683.123 1220.33 686.161 1223.88C689.291 1227.36 693.503 1229.09 698.82 1229.09Z" fill="#031B62"/>
<path d="M665.241 1227.69C662.937 1228.07 660.61 1228.24 658.28 1228.2C655.239 1228.2 653.045 1227.48 651.696 1226.04C650.347 1224.52 649.671 1221.39 649.671 1216.64V1192.27H663.209V1180.7H649.664V1162.8H635.869V1180.7H625.867V1192.27H635.869V1219.83C635.869 1224.48 636.501 1228.34 637.767 1231.38C639.034 1234.43 640.805 1236.59 643.084 1237.86C645.36 1239.04 647.344 1239.81 649.033 1240.15C650.721 1240.49 652.702 1240.65 654.981 1240.65C658.949 1240.65 662.364 1240.4 665.234 1239.89V1227.7L665.241 1227.69Z" fill="#031B62"/>
<path d="M586.272 1241.41C577.073 1241.41 569.944 1238.49 564.881 1232.65C559.818 1226.8 557.285 1219.36 557.285 1210.29C557.285 1201.32 559.949 1193.91 565.266 1188.07C570.582 1182.15 577.712 1179.18 586.656 1179.18C590.624 1179.18 594.252 1180.03 597.537 1181.72C600.836 1183.42 603.366 1185.74 605.133 1188.7V1180.7H618.932V1239.89H605.137V1231.89C603.451 1234.77 600.791 1237.1 597.163 1238.88C593.621 1240.57 589.989 1241.42 586.279 1241.42L586.272 1241.41ZM588.297 1229.09C593.95 1229.09 598.262 1227.31 601.21 1223.76C604.248 1220.2 605.765 1215.71 605.765 1210.29C605.765 1204.88 604.248 1200.39 601.21 1196.83C598.255 1193.28 593.95 1191.5 588.297 1191.5C582.98 1191.5 578.762 1193.28 575.638 1196.83C572.608 1200.31 571.087 1204.79 571.087 1210.29C571.087 1215.8 572.608 1220.33 575.645 1223.88C578.762 1227.36 582.987 1229.09 588.304 1229.09H588.297Z" fill="#031B62"/>
<path d="M502.708 1232.91C508.025 1238.57 515.198 1241.41 524.229 1241.41C532.33 1241.41 538.827 1239.42 543.722 1235.44C548.699 1231.46 551.527 1226.13 552.204 1219.44H538.405C536.802 1225.87 532.076 1229.09 524.229 1229.09C519.335 1229.09 515.494 1227.48 512.71 1224.26C510.009 1220.96 508.66 1216.31 508.66 1210.29C508.66 1204.28 510.009 1199.67 512.71 1196.45C515.494 1193.15 519.335 1191.5 524.229 1191.5C532.162 1191.5 536.888 1194.93 538.405 1201.79H552.204C551.527 1194.93 548.699 1189.47 543.722 1185.4C538.827 1181.26 532.33 1179.18 524.229 1179.18C515.198 1179.18 508.025 1182.06 502.708 1187.82C497.477 1193.49 494.861 1200.98 494.861 1210.29C494.861 1219.61 497.477 1227.14 502.708 1232.9V1232.91Z" fill="#031B62"/>
<rect x="1327" y="98" width="1134" height="1268" rx="50" fill="#E3F1CC"/>
<path d="M1202.94 690.939C1202.35 691.525 1202.35 692.475 1202.94 693.061L1212.49 702.607C1213.07 703.192 1214.02 703.192 1214.61 702.607C1215.19 702.021 1215.19 701.071 1214.61 700.485L1206.12 692L1214.61 683.515C1215.19 682.929 1215.19 681.979 1214.61 681.393C1214.02 680.808 1213.07 680.808 1212.49 681.393L1202.94 690.939ZM1328.06 693.061C1328.65 692.475 1328.65 691.525 1328.06 690.939L1318.51 681.393C1317.93 680.808 1316.98 680.808 1316.39 681.393C1315.81 681.979 1315.81 682.929 1316.39 683.515L1324.88 692L1316.39 700.485C1315.81 701.071 1315.81 702.021 1316.39 702.607C1316.98 703.192 1317.93 703.192 1318.51 702.607L1328.06 693.061ZM1204 692L1204 693.5L1210.15 693.5L1210.15 692L1210.15 690.5L1204 690.5L1204 692ZM1218.35 692L1218.35 693.5L1230.65 693.5L1230.65 692L1230.65 690.5L1218.35 690.5L1218.35 692ZM1238.85 692L1238.85 693.5L1251.15 693.5L1251.15 692L1251.15 690.5L1238.85 690.5L1238.85 692ZM1259.35 692L1259.35 693.5L1271.65 693.5L1271.65 692L1271.65 690.5L1259.35 690.5L1259.35 692ZM1279.85 692L1279.85 693.5L1292.15 693.5L1292.15 692L1292.15 690.5L1279.85 690.5L1279.85 692ZM1300.35 692L1300.35 693.5L1312.65 693.5L1312.65 692L1312.65 690.5L1300.35 690.5L1300.35 692ZM1320.85 692L1320.85 693.5L1327 693.5L1327 692L1327 690.5L1320.85 690.5L1320.85 692Z" fill="black"/>
<g clip-path="url(#clip0_915_2)">
<mask id="mask0_915_2" style="mask-type:luminance" maskUnits="userSpaceOnUse" x="1617" y="1149" width="553" height="113">
<path d="M2170 1149.79H1617.63V1261.21H2170V1149.79Z" fill="white"/>
</mask>
<g mask="url(#mask0_915_2)">
<path d="M1631.2 1222.56V1253.74C1631.2 1255.66 1632.82 1256.45 1633.32 1256.63C1633.83 1256.85 1635.53 1257.32 1637.04 1255.91L1660.62 1233.25C1662.63 1231.32 1664.57 1229.29 1666.03 1226.91C1666.71 1225.8 1667 1225.17 1667 1225.17C1668.44 1222.24 1668.44 1219.41 1667.03 1216.59C1664.94 1212.39 1659.6 1208.12 1651.55 1204.06L1637.8 1211.74C1633.72 1214.06 1631.2 1218.15 1631.2 1222.56Z" fill="#004EC3"/>
<path d="M1617.63 1153.22V1185.92C1617.63 1190.01 1620.38 1193.63 1624.28 1194.79C1637.56 1198.63 1660.69 1206.88 1666.28 1219.01C1667.01 1220.6 1667.44 1222.16 1667.58 1223.79C1671.3 1217.02 1673 1209.23 1672.2 1201.34C1671.12 1190.15 1665.2 1179.98 1655.96 1173.5L1623.01 1150.44C1622.43 1150 1621.75 1149.79 1621.06 1149.79C1620.49 1149.79 1619.98 1149.89 1619.44 1150.18C1618.36 1150.8 1617.63 1151.92 1617.63 1153.22Z" fill="#2470FF"/>
<path d="M1718.91 1222.56V1253.74C1718.91 1255.66 1717.28 1256.45 1716.78 1256.63C1716.27 1256.85 1714.57 1257.32 1713.06 1255.91L1688.93 1232.72C1687.29 1231.14 1685.72 1229.47 1684.48 1227.56C1683.5 1226.04 1683.11 1225.17 1683.11 1225.17C1681.66 1222.24 1681.66 1219.41 1683.07 1216.59C1685.16 1212.39 1690.5 1208.12 1698.55 1204.06L1712.3 1211.74C1716.42 1214.06 1718.91 1218.15 1718.91 1222.56Z" fill="#004EC3"/>
<path d="M1732.49 1153.22V1185.92C1732.49 1190.01 1729.74 1193.63 1725.84 1194.79C1712.56 1198.63 1689.43 1206.88 1683.84 1219.01C1683.11 1220.6 1682.68 1222.16 1682.54 1223.79C1678.82 1217.02 1677.12 1209.23 1677.92 1201.34C1679 1190.15 1684.92 1179.98 1694.16 1173.5L1727.11 1150.44C1727.68 1150 1728.37 1149.79 1729.06 1149.79C1729.63 1149.79 1730.14 1149.89 1730.68 1150.18C1731.76 1150.8 1732.49 1151.92 1732.49 1153.22Z" fill="#2470FF"/>
<path d="M1788.39 1160.3H1801L1830.24 1227.92H1831.1L1860.34 1160.3H1872.73V1238.26H1863.53V1176.21H1862.66L1835.87 1238.26H1825.26L1798.46 1176.21H1797.59V1238.26H1788.39V1160.3Z" fill="#0F0F0F"/>
<path d="M1882.9 1210.7C1882.9 1192.08 1894.21 1181.79 1911 1181.79C1927.72 1181.79 1939.09 1192.08 1939.09 1210.7C1939.09 1229.27 1927.72 1239.55 1911 1239.55C1894.21 1239.55 1882.9 1229.27 1882.9 1210.7ZM1892.54 1210.7C1892.54 1224.34 1899.95 1231.76 1911 1231.76C1921.99 1231.76 1929.4 1224.34 1929.4 1210.7C1929.4 1197 1921.99 1189.64 1911 1189.64C1899.95 1189.64 1892.54 1197 1892.54 1210.7Z" fill="#0F0F0F"/>
<path d="M1948.19 1183.08H1957.39V1189.68H1958.26C1960.16 1185.79 1963.62 1182.86 1971.9 1182.86H1979.59V1191.09H1972.12C1961.78 1191.09 1957.72 1196.78 1957.72 1207.98V1238.25H1948.19V1183.08Z" fill="#0F0F0F"/>
<path d="M1986.93 1259.9V1183.08H1996.24V1190.71H1997.1C2001.22 1184.32 2007.93 1181.83 2015.73 1181.83C2030.07 1181.83 2041.06 1191.58 2041.06 1210.69C2041.06 1229.74 2030.07 1239.49 2015.73 1239.49C2008.09 1239.49 2001.43 1237.05 1997.32 1230.94H1996.45V1259.9H1986.93ZM1996.13 1210.69C1996.13 1224.06 2003.28 1231.59 2013.78 1231.59C2024.33 1231.59 2031.48 1224.06 2031.48 1210.69C2031.48 1197.26 2024.33 1189.74 2013.78 1189.74C2003.28 1189.74 1996.13 1197.26 1996.13 1210.69Z" fill="#0F0F0F"/>
<path d="M2050.19 1160.3H2059.72V1189.91H2060.58C2064.54 1184.06 2071.09 1181.84 2078.83 1181.84C2091.66 1181.84 2099.78 1188.34 2099.78 1201.82V1238.26H2090.25V1202.74C2090.25 1193.75 2085.32 1189.8 2076.72 1189.8C2067.3 1189.8 2059.72 1195.38 2059.72 1207.45V1238.26H2050.19V1160.3Z" fill="#0F0F0F"/>
<path d="M2108.35 1210.7C2108.35 1192.08 2119.66 1181.79 2136.45 1181.79C2153.18 1181.79 2164.55 1192.08 2164.55 1210.7C2164.55 1229.27 2153.18 1239.55 2136.45 1239.55C2119.66 1239.55 2108.35 1229.27 2108.35 1210.7ZM2117.99 1210.7C2117.99 1224.34 2125.4 1231.76 2136.45 1231.76C2147.44 1231.76 2154.85 1224.34 2154.85 1210.7C2154.85 1197 2147.44 1189.64 2136.45 1189.64C2125.4 1189.64 2117.99 1197 2117.99 1210.7Z" fill="#0F0F0F"/>
</g>
</g>
<path d="M733.061 773.939C732.475 773.354 731.525 773.354 730.939 773.939L721.393 783.485C720.808 784.071 720.808 785.021 721.393 785.607C721.979 786.192 722.929 786.192 723.515 785.607L732 777.121L740.485 785.607C741.071 786.192 742.021 786.192 742.607 785.607C743.192 785.021 743.192 784.071 742.607 783.485L733.061 773.939ZM730.939 899.061C731.525 899.646 732.475 899.646 733.061 899.061L742.607 889.515C743.192 888.929 743.192 887.979 742.607 887.393C742.021 886.808 741.071 886.808 740.485 887.393L732 895.879L723.515 887.393C722.929 886.808 721.979 886.808 721.393 887.393C720.808 887.979 720.808 888.929 721.393 889.515L730.939 899.061ZM732 775H730.5V781.15H732H733.5V775H732ZM732 789.35H730.5V801.65H732H733.5V789.35H732ZM732 809.85H730.5V822.15H732H733.5V809.85H732ZM732 830.35H730.5V842.65H732H733.5V830.35H732ZM732 850.85H730.5V863.15H732H733.5V850.85H732ZM732 871.35H730.5V883.65H732H733.5V871.35H732ZM732 891.85H730.5V898H732H733.5V891.85H732Z" fill="black"/>
<rect x="1435.19" y="391.19" width="917.619" height="599.963" rx="48.8096" fill="#D2E8AE"/>
<rect x="1435.19" y="391.19" width="917.619" height="599.963" rx="48.8096" stroke="#31450E" stroke-width="2.38076"/>
<g clip-path="url(#clip1_915_2)">
<path fill-rule="evenodd" clip-rule="evenodd" d="M1535.84 527.136H1555.81V507.136H1535.84V487.136H1575.77V547.136H1515.87V527.136H1495.9V447.137H1575.77V467.137H1515.87V487.136V527.136H1535.84Z" fill="#7180F5"/>
<path d="M1595.74 467.141H1575.77V487.14H1595.74V467.141Z" fill="#FF8099"/>
<path d="M1515.87 547.133H1495.9V567.133H1515.87V547.133Z" fill="#1E1C2D"/>
</g>
<rect x="2118.01" y="447.137" width="174.092" height="58.0461" rx="19.0461" fill="#31450E"/>
<path d="M2148.23 487.089C2142.51 487.089 2138.08 482.432 2138.08 476.375C2138.08 470.347 2142.51 465.719 2148.23 465.719C2153.37 465.719 2157.48 469.147 2158.25 474.204H2154.91C2154.34 470.89 2151.65 468.547 2148.25 468.547C2144.2 468.547 2141.34 471.833 2141.34 476.375C2141.34 480.975 2144.2 484.26 2148.25 484.26C2151.65 484.26 2154.34 481.889 2154.91 478.575H2158.25C2157.48 483.66 2153.37 487.089 2148.23 487.089ZM2164.18 478.918V486.66H2161.29V471.518H2163.98V474.718C2165.03 472.633 2167.32 471.319 2169.8 471.319V474.318C2166.55 474.147 2164.18 475.575 2164.18 478.918ZM2178.26 486.946C2173.89 486.946 2170.95 483.775 2170.95 479.004C2170.95 474.518 2174 471.233 2178.17 471.233C2182.69 471.233 2185.69 474.89 2185.17 479.804H2173.89C2174.12 482.889 2175.66 484.689 2178.2 484.689C2180.35 484.689 2181.83 483.518 2182.32 481.546H2185.17C2184.43 484.917 2181.83 486.946 2178.26 486.946ZM2178.12 473.404C2175.8 473.404 2174.23 475.061 2173.92 477.889H2182.12C2181.97 475.09 2180.46 473.404 2178.12 473.404ZM2186.88 479.089C2186.88 474.49 2189.51 471.233 2193.59 471.233C2195.62 471.233 2197.39 472.261 2198.45 474.118V466.147H2201.33V486.66H2198.65V483.946C2197.56 485.86 2195.73 486.946 2193.59 486.946C2189.51 486.946 2186.88 483.632 2186.88 479.089ZM2189.88 479.089C2189.88 482.46 2191.65 484.375 2194.16 484.375C2196.62 484.375 2198.45 482.375 2198.45 479.032C2198.45 475.632 2196.56 473.775 2194.16 473.775C2191.65 473.775 2189.88 475.661 2189.88 479.089ZM2211.69 486.946C2207.4 486.946 2204.26 483.575 2204.26 479.089C2204.26 474.604 2207.4 471.233 2211.69 471.233C2215.97 471.233 2219.11 474.604 2219.11 479.089C2219.11 483.575 2215.97 486.946 2211.69 486.946ZM2211.69 484.403C2214.17 484.403 2216.14 482.403 2216.14 479.089C2216.14 475.775 2214.17 473.804 2211.69 473.804C2209.2 473.804 2207.26 475.775 2207.26 479.089C2207.26 482.403 2209.2 484.403 2211.69 484.403ZM2224.94 478.918V486.66H2222.06V471.518H2224.74V474.718C2225.8 472.633 2228.08 471.319 2230.57 471.319V474.318C2227.31 474.147 2224.94 475.575 2224.94 478.918ZM2242.02 486.66V484.317C2241.08 486.003 2239.4 486.946 2237.17 486.946C2234.02 486.946 2231.97 485.146 2231.97 482.375C2231.97 479.404 2234.34 477.861 2238.85 477.861C2239.74 477.861 2240.45 477.889 2241.68 478.032V476.918C2241.68 474.747 2240.51 473.518 2238.51 473.518C2236.4 473.518 2235.11 474.775 2235.02 476.89H2232.4C2232.54 473.49 2234.97 471.233 2238.51 471.233C2242.25 471.233 2244.42 473.347 2244.42 476.947V486.66H2242.02ZM2234.71 482.289C2234.71 483.86 2235.88 484.889 2237.74 484.889C2240.17 484.889 2241.68 483.375 2241.68 481.061V479.832C2240.57 479.689 2239.77 479.661 2239.02 479.661C2236.14 479.661 2234.71 480.518 2234.71 482.289ZM2268.59 486.66L2266.74 481.575H2257.88L2255.99 486.66H2252.82L2260.68 466.147H2264.14L2271.94 486.66H2268.59ZM2262.34 469.576L2258.82 479.032H2265.79L2262.34 469.576Z" fill="#E3F1CC"/>
<path d="M1521.56 642.265C1512.28 642.265 1506.97 648.985 1506.97 659.097C1506.97 669.529 1512.99 675.225 1521.63 675.225C1529.76 675.225 1534.68 670.745 1534.68 663.257V663.065H1520.54V655.833H1542.3V682.137H1535.39L1534.88 676.761C1532.32 680.345 1527 682.841 1520.67 682.841C1507.55 682.841 1498.4 673.305 1498.4 658.905C1498.4 644.697 1507.68 634.585 1521.76 634.585C1532.44 634.585 1540.7 640.793 1542.04 650.329H1533.4C1531.93 644.825 1527.2 642.265 1521.56 642.265ZM1559.4 682.969C1552.68 682.969 1548.59 679.065 1548.59 673.113C1548.59 667.289 1552.81 663.641 1560.3 663.065L1569.77 662.361V661.657C1569.77 657.369 1567.21 655.641 1563.24 655.641C1558.63 655.641 1556.07 657.561 1556.07 660.889H1549.42C1549.42 654.041 1555.05 649.561 1563.63 649.561C1572.14 649.561 1577.39 654.169 1577.39 662.937V682.137H1570.54L1569.96 677.465C1568.62 680.729 1564.33 682.969 1559.4 682.969ZM1561.96 677.081C1566.76 677.081 1569.83 674.201 1569.83 669.337V667.673L1563.24 668.185C1558.38 668.633 1556.52 670.233 1556.52 672.793C1556.52 675.673 1558.44 677.081 1561.96 677.081ZM1606.5 650.521H1614.31V682.137H1607.07L1606.5 677.913C1604.58 680.921 1600.48 682.969 1596.26 682.969C1588.96 682.969 1584.67 678.041 1584.67 670.297V650.521H1592.48V667.545C1592.48 673.561 1594.85 675.993 1599.2 675.993C1604.13 675.993 1606.5 673.113 1606.5 667.097V650.521ZM1630.18 682.137H1622.37V650.521H1629.6L1630.24 654.617C1632.23 651.417 1636.07 649.561 1640.35 649.561C1648.29 649.561 1652.39 654.489 1652.39 662.681V682.137H1644.58V664.537C1644.58 659.225 1641.95 656.665 1637.92 656.665C1633.12 656.665 1630.18 659.993 1630.18 665.113V682.137ZM1670.81 682.137H1663V657.049H1656.92V650.521H1663V640.665H1670.81V650.521H1676.95V657.049H1670.81V682.137ZM1689.68 682.137H1681.94V634.521H1689.68V682.137ZM1712.01 682.969C1702.61 682.969 1696.01 676.121 1696.01 666.329C1696.01 656.409 1702.48 649.561 1711.76 649.561C1721.23 649.561 1727.25 655.897 1727.25 665.753V668.121L1703.44 668.185C1704.01 673.753 1706.96 676.569 1712.14 676.569C1716.43 676.569 1719.25 674.905 1720.14 671.897H1727.37C1726.03 678.809 1720.27 682.969 1712.01 682.969ZM1711.82 655.961C1707.21 655.961 1704.4 658.457 1703.63 663.193H1719.5C1719.5 658.841 1716.49 655.961 1711.82 655.961ZM1743.93 682.137H1736.13V657.049H1730.05V650.521H1736.13V640.665H1743.93V650.521H1750.08V657.049H1743.93V682.137ZM1783.06 682.137L1769.11 635.353H1777.62L1785.05 660.057C1785.75 662.617 1786.45 665.241 1787.16 669.337C1787.93 665.177 1788.63 662.745 1789.46 660.057L1796.82 635.353H1805.85L1813.08 660.057C1813.85 662.681 1814.55 665.369 1815.32 669.337C1816.21 664.985 1816.85 662.489 1817.56 660.121L1825.11 635.353H1833.43L1819.22 682.137H1811.29L1801.3 648.089L1791.13 682.137H1783.06ZM1868.64 682.137H1839.58V635.353H1868.64V642.905H1847.78V654.937H1866.46V662.169H1847.78V674.585H1868.64V682.137ZM1873.43 642.905V635.353H1909.01V642.905H1895.31V682.137H1887.12V642.905H1873.43ZM1923.46 682.137H1915.27V635.353H1923.46V654.681H1944.2V635.353H1952.39V682.137H1944.2V662.297H1923.46V682.137ZM1998.52 666.009H1988.21V682.137H1980.02V635.353H1998.52C2007.93 635.353 2014.01 641.497 2014.01 650.649C2014.01 659.673 2007.86 666.009 1998.52 666.009ZM1996.92 642.649H1988.21V658.713H1996.79C2002.42 658.713 2005.43 655.705 2005.43 650.585C2005.43 645.465 2002.36 642.649 1996.92 642.649ZM2039.58 650.393V657.625H2036.7C2031.07 657.625 2027.55 660.633 2027.55 666.777V682.137H2019.74V650.585H2027.1L2027.55 655.193C2028.9 652.057 2031.9 649.945 2036.13 649.945C2037.22 649.945 2038.3 650.073 2039.58 650.393ZM2048.77 644.185C2046.09 644.185 2043.97 642.073 2043.97 639.449C2043.97 636.825 2046.09 634.777 2048.77 634.777C2051.33 634.777 2053.45 636.825 2053.45 639.449C2053.45 642.073 2051.33 644.185 2048.77 644.185ZM2044.87 682.137V650.521H2052.68V682.137H2044.87ZM2068.55 682.137H2060.74V650.521H2067.91L2068.55 654.233C2070.15 651.609 2073.35 649.561 2077.9 649.561C2082.7 649.561 2086.02 651.929 2087.69 655.577C2089.29 651.929 2093 649.561 2097.8 649.561C2105.48 649.561 2109.7 654.169 2109.7 661.465V682.137H2101.96V663.513C2101.96 658.969 2099.53 656.601 2095.82 656.601C2092.04 656.601 2089.16 659.033 2089.16 664.217V682.137H2081.35V663.449C2081.35 659.033 2078.98 656.665 2075.27 656.665C2071.56 656.665 2068.55 659.097 2068.55 664.217V682.137ZM2131.51 682.969C2122.11 682.969 2115.51 676.121 2115.51 666.329C2115.51 656.409 2121.98 649.561 2131.26 649.561C2140.73 649.561 2146.75 655.897 2146.75 665.753V668.121L2122.94 668.185C2123.51 673.753 2126.46 676.569 2131.64 676.569C2135.93 676.569 2138.75 674.905 2139.64 671.897H2146.87C2145.53 678.809 2139.77 682.969 2131.51 682.969ZM2131.32 655.961C2126.71 655.961 2123.9 658.457 2123.13 663.193H2139C2139 658.841 2135.99 655.961 2131.32 655.961Z" fill="#09090B"/>
<path d="M1509.96 809.137H1505.7V785.159H1496.64V781.324H1519.03V785.159H1509.96V809.137ZM1545.49 781.324L1535.26 809.137H1530.58L1520.35 781.324H1524.92L1533.02 804.179L1541.23 781.324H1545.49ZM1565.97 809.137H1549.12V781.324H1553.38V805.302H1565.97V809.137Z" fill="#858585"/>
<path d="M1512.97 916.644V910.934C1504.2 910.402 1498.42 905.422 1498.03 897.653H1504.67C1504.8 901.903 1507.92 904.692 1512.97 905.223V888.688L1510.58 888.157C1502.74 886.364 1498.69 881.981 1498.69 875.142C1498.69 867.571 1504.33 862.193 1512.97 861.462V855.685H1517.22V861.396C1525.25 862.126 1530.36 867.04 1530.83 874.743H1524.39C1524.12 870.493 1521.53 867.771 1517.22 867.173V883.641L1519.81 884.239C1527.77 886.032 1531.63 890.215 1531.63 896.856C1531.63 904.758 1525.98 910.07 1517.22 910.867V916.644H1512.97ZM1511.9 882.38L1512.97 882.645V867.173C1508.05 867.837 1505.06 870.692 1505.06 874.942C1505.06 878.794 1507.26 881.251 1511.9 882.38ZM1518.48 890.016L1517.22 889.751V905.09C1522.2 904.426 1525.25 901.571 1525.25 897.387C1525.25 893.536 1523.06 891.079 1518.48 890.016ZM1553.62 911C1543.79 911 1537.41 904.758 1537.41 895.196H1543.85C1543.85 901.371 1547.64 905.156 1553.75 905.156C1560.26 905.156 1564.44 900.84 1564.44 894.332C1564.44 888.157 1560.52 883.575 1553.81 883.575C1549.76 883.575 1546.05 885.501 1543.85 888.223L1538.34 886.829L1544.19 862.193H1568.22V868.169H1548.9L1545.71 880.919C1548.24 878.993 1551.42 877.997 1555.01 877.997C1564.77 877.997 1571.08 884.837 1571.08 894.067C1571.08 904.028 1563.97 911 1553.62 911ZM1576.71 886.231C1576.71 871.357 1584.42 861.263 1596.5 861.263C1608.52 861.263 1616.22 871.357 1616.22 886.231C1616.22 901.172 1608.85 911.066 1596.5 911.066C1584.08 911.066 1576.71 901.172 1576.71 886.231ZM1583.15 886.231C1583.15 898.051 1588.07 905.223 1596.5 905.223C1604.93 905.223 1609.78 898.051 1609.78 886.231C1609.78 874.278 1604.93 867.107 1596.5 867.107C1588.07 867.107 1583.15 874.278 1583.15 886.231ZM1631.45 910.203H1625.08V862.193H1631.45L1647.99 902.567L1664.52 862.193H1671.03V910.203H1664.66V891.211C1664.66 882.247 1664.72 878.993 1665.05 875.606L1651.04 910.203H1644.93L1630.99 875.739C1631.32 878.063 1631.45 882.977 1631.45 889.684V910.203Z" fill="#09090B"/>
<path d="M1779.06 809.137L1776.54 802.242H1764.53L1761.97 809.137H1757.68L1768.33 781.324H1773.01L1783.59 809.137H1779.06ZM1770.57 785.973L1765.81 798.794H1775.26L1770.57 785.973ZM1807 801.002C1807 805.844 1803.13 809.524 1796.39 809.524C1789.69 809.524 1785.62 805.844 1785.27 800.305H1789.61C1789.8 803.83 1792.05 806.115 1796.31 806.115C1799.84 806.115 1802.47 804.45 1802.47 801.583C1802.47 799.259 1800.96 798.097 1797.74 797.4L1793.72 796.625C1789.8 795.85 1786.24 793.875 1786.24 789.149C1786.24 784.462 1790.35 780.937 1796.12 780.937C1801.89 780.937 1806.27 784.462 1806.62 790.001H1802.28C1802.04 786.67 1799.64 784.346 1796.16 784.346C1792.55 784.346 1790.58 786.476 1790.58 788.878C1790.58 791.512 1792.86 792.442 1795.46 792.984L1799.57 793.797C1804.33 794.766 1807 796.857 1807 801.002ZM1832.27 801.002C1832.27 805.844 1828.4 809.524 1821.66 809.524C1814.96 809.524 1810.89 805.844 1810.54 800.305H1814.88C1815.07 803.83 1817.32 806.115 1821.58 806.115C1825.11 806.115 1827.74 804.45 1827.74 801.583C1827.74 799.259 1826.23 798.097 1823.01 797.4L1818.99 796.625C1815.07 795.85 1811.51 793.875 1811.51 789.149C1811.51 784.462 1815.62 780.937 1821.39 780.937C1827.16 780.937 1831.54 784.462 1831.88 790.001H1827.55C1827.31 786.67 1824.91 784.346 1821.43 784.346C1817.82 784.346 1815.85 786.476 1815.85 788.878C1815.85 791.512 1818.13 792.442 1820.73 792.984L1824.83 793.797C1829.6 794.766 1832.27 796.857 1832.27 801.002ZM1854.83 805.418V809.137H1837.2V781.324H1854.56V785.043H1841.47V792.945H1853.4V796.664H1841.47V805.418H1854.83ZM1870.87 809.137H1866.6V785.159H1857.54V781.324H1879.93V785.159H1870.87V809.137Z" fill="#858585"/>
<path d="M1773.97 916.644V910.934C1765.2 910.402 1759.42 905.422 1759.03 897.653H1765.67C1765.8 901.903 1768.92 904.692 1773.97 905.223V888.688L1771.58 888.157C1763.74 886.364 1759.69 881.981 1759.69 875.142C1759.69 867.571 1765.33 862.193 1773.97 861.462V855.685H1778.22V861.396C1786.25 862.126 1791.36 867.04 1791.83 874.743H1785.39C1785.12 870.493 1782.53 867.771 1778.22 867.173V883.641L1780.81 884.239C1788.77 886.032 1792.63 890.215 1792.63 896.856C1792.63 904.758 1786.98 910.07 1778.22 910.867V916.644H1773.97ZM1772.9 882.38L1773.97 882.645V867.173C1769.05 867.837 1766.06 870.692 1766.06 874.942C1766.06 878.794 1768.26 881.251 1772.9 882.38ZM1779.48 890.016L1778.22 889.751V905.09C1783.2 904.426 1786.25 901.571 1786.25 897.387C1786.25 893.536 1784.06 891.079 1779.48 890.016ZM1810.5 910.203L1796.22 862.193H1802.99L1811.76 891.543C1812.42 894.067 1813.09 896.59 1813.75 900.242C1814.55 896.391 1815.28 894.067 1816.01 891.543L1825.11 862.193H1832.15L1841.18 891.543C1841.97 894.133 1842.64 896.657 1843.37 900.242C1844.17 896.192 1844.83 893.735 1845.49 891.61L1854.33 862.193H1860.97L1846.49 910.203H1840.25L1828.63 872.22L1816.87 910.203H1810.5ZM1896.82 910.203H1867.53V862.193H1896.82V868.169H1874.04V883.177H1894.56V888.954H1874.04V904.16H1896.82V910.203ZM1901.6 868.169V862.193H1936.99V868.169H1922.58V910.203H1916.07V868.169H1901.6ZM1950.04 910.203H1943.53V862.193H1950.04V882.844H1973.81V862.193H1980.32V910.203H1973.81V888.887H1950.04V910.203Z" fill="#09090B"/>
<path d="M2088.06 809.137L2085.54 802.242H2073.53L2070.97 809.137H2066.68L2077.33 781.324H2082.01L2092.59 809.137H2088.06ZM2079.57 785.973L2074.81 798.794H2084.26L2079.57 785.973ZM2106.07 799.453H2100.68V809.137H2096.42V781.324H2106.07C2112.3 781.324 2116.33 784.501 2116.33 790.311C2116.33 796.16 2112.3 799.453 2106.07 799.453ZM2106.03 784.927H2100.68V795.85H2106.03C2109.79 795.85 2112.07 793.797 2112.07 790.35C2112.07 786.902 2109.79 784.927 2106.03 784.927ZM2131.61 798.717V809.137H2127.31V798.717L2117.32 781.324H2121.96L2129.6 794.727L2137.3 781.324H2141.64L2131.61 798.717Z" fill="#858585"/>
<path d="M2101.36 910.137L2068.95 910.203V905.223L2084.43 891.875C2092.2 885.169 2094.39 881.915 2094.39 876.802C2094.39 870.759 2090.93 867.173 2085.16 867.173C2079.25 867.173 2075.4 871.489 2075.26 878.329H2068.76C2068.95 868.036 2075.46 861.329 2085.22 861.329C2094.85 861.329 2101.03 867.173 2101.03 876.403C2101.03 883.243 2097.64 888.09 2089.14 895.461L2079.18 904.094H2101.36V910.137ZM2113.84 911C2111.25 911 2109.06 908.875 2109.06 906.352C2109.06 903.762 2111.25 901.637 2113.84 901.637C2116.37 901.637 2118.56 903.762 2118.56 906.352C2118.56 908.875 2116.37 911 2113.84 911ZM2141 911C2131.17 911 2124.79 904.758 2124.79 895.196H2131.23C2131.23 901.371 2135.02 905.156 2141.13 905.156C2147.64 905.156 2151.82 900.84 2151.82 894.332C2151.82 888.157 2147.9 883.575 2141.19 883.575C2137.14 883.575 2133.42 885.501 2131.23 888.223L2125.72 886.829L2131.57 862.193H2155.6V868.169H2136.28L2133.09 880.919C2135.62 878.993 2138.8 877.997 2142.39 877.997C2152.15 877.997 2158.46 884.837 2158.46 894.067C2158.46 904.028 2151.35 911 2141 911ZM2164.09 886.231C2164.09 871.357 2171.79 861.263 2183.88 861.263C2195.9 861.263 2203.6 871.357 2203.6 886.231C2203.6 901.172 2196.23 911.066 2183.88 911.066C2171.46 911.066 2164.09 901.172 2164.09 886.231ZM2170.53 886.231C2170.53 898.051 2175.45 905.223 2183.88 905.223C2192.31 905.223 2197.16 898.051 2197.16 886.231C2197.16 874.278 2192.31 867.107 2183.88 867.107C2175.45 867.107 2170.53 874.278 2170.53 886.231ZM2233.91 873.548C2233.91 880.653 2228.86 885.766 2221.75 885.766C2214.72 885.766 2209.67 880.653 2209.67 873.548C2209.67 866.376 2214.72 861.263 2221.75 861.263C2228.86 861.263 2233.91 866.376 2233.91 873.548ZM2259.21 862.259L2222.75 910.203H2216.38L2252.83 862.259H2259.21ZM2228.79 873.548C2228.79 869.232 2225.94 866.243 2221.75 866.243C2217.64 866.243 2214.78 869.232 2214.78 873.548C2214.78 877.798 2217.64 880.786 2221.75 880.786C2225.87 880.786 2228.79 877.798 2228.79 873.548ZM2266.05 898.848C2266.05 905.953 2260.93 911.066 2253.89 911.066C2246.86 911.066 2241.74 905.953 2241.74 898.848C2241.74 891.676 2246.86 886.63 2253.89 886.63C2260.93 886.63 2266.05 891.676 2266.05 898.848ZM2260.87 898.848C2260.87 894.532 2258.08 891.543 2253.89 891.543C2249.78 891.543 2246.92 894.532 2246.92 898.848C2246.92 903.098 2249.78 906.086 2253.89 906.086C2258.01 906.086 2260.87 903.098 2260.87 898.848Z" fill="#09090B"/>
<rect x="178.19" y="391.19" width="917.619" height="599.963" rx="48.8096" fill="#BBD5FD"/>
<rect x="178.19" y="391.19" width="917.619" height="599.963" rx="48.8096" stroke="#031B62" stroke-width="2.38076"/>
<g clip-path="url(#clip2_915_2)">
<path fill-rule="evenodd" clip-rule="evenodd" d="M278.837 527.136H298.805V507.136H278.837V487.136H318.774V547.136H258.869V527.136H238.9V447.137H318.774V467.137H258.869V487.136V527.136H278.837Z" fill="#7180F5"/>
<path d="M338.738 467.141H318.77V487.14H338.738V467.141Z" fill="#FF8099"/>
<path d="M258.869 547.133H238.9V567.133H258.869V547.133Z" fill="#1E1C2D"/>
</g>
<rect x="861.008" y="447.137" width="174.092" height="58.0461" rx="19.0461" fill="#031B62"/>
<path d="M891.225 487.089C885.511 487.089 881.083 482.432 881.083 476.375C881.083 470.347 885.511 465.719 891.225 465.719C896.368 465.719 900.482 469.147 901.253 474.204H897.91C897.339 470.89 894.654 468.547 891.254 468.547C887.197 468.547 884.34 471.833 884.34 476.375C884.34 480.975 887.197 484.26 891.254 484.26C894.654 484.26 897.339 481.889 897.91 478.575H901.253C900.482 483.66 896.368 487.089 891.225 487.089ZM907.176 478.918V486.66H904.29V471.518H906.976V474.718C908.033 472.633 910.319 471.319 912.804 471.319V474.318C909.547 474.147 907.176 475.575 907.176 478.918ZM921.26 486.946C916.889 486.946 913.946 483.775 913.946 479.004C913.946 474.518 917.003 471.233 921.174 471.233C925.688 471.233 928.688 474.89 928.174 479.804H916.889C917.117 482.889 918.66 484.689 921.203 484.689C923.345 484.689 924.831 483.518 925.317 481.546H928.174C927.431 484.917 924.831 486.946 921.26 486.946ZM921.117 473.404C918.803 473.404 917.232 475.061 916.917 477.889H925.117C924.974 475.09 923.46 473.404 921.117 473.404ZM929.877 479.089C929.877 474.49 932.505 471.233 936.591 471.233C938.619 471.233 940.39 472.261 941.447 474.118V466.147H944.333V486.66H941.647V483.946C940.562 485.86 938.733 486.946 936.591 486.946C932.505 486.946 929.877 483.632 929.877 479.089ZM932.877 479.089C932.877 482.46 934.648 484.375 937.162 484.375C939.619 484.375 941.447 482.375 941.447 479.032C941.447 475.632 939.562 473.775 937.162 473.775C934.648 473.775 932.877 475.661 932.877 479.089ZM954.686 486.946C950.401 486.946 947.258 483.575 947.258 479.089C947.258 474.604 950.401 471.233 954.686 471.233C958.972 471.233 962.114 474.604 962.114 479.089C962.114 483.575 958.972 486.946 954.686 486.946ZM954.686 484.403C957.172 484.403 959.143 482.403 959.143 479.089C959.143 475.775 957.172 473.804 954.686 473.804C952.201 473.804 950.258 475.775 950.258 479.089C950.258 482.403 952.201 484.403 954.686 484.403ZM967.941 478.918V486.66H965.056V471.518H967.741V474.718C968.798 472.633 971.084 471.319 973.569 471.319V474.318C970.312 474.147 967.941 475.575 967.941 478.918ZM985.024 486.66V484.317C984.081 486.003 982.395 486.946 980.167 486.946C977.024 486.946 974.967 485.146 974.967 482.375C974.967 479.404 977.338 477.861 981.852 477.861C982.738 477.861 983.452 477.889 984.681 478.032V476.918C984.681 474.747 983.509 473.518 981.51 473.518C979.395 473.518 978.11 474.775 978.024 476.89H975.396C975.539 473.49 977.967 471.233 981.51 471.233C985.252 471.233 987.423 473.347 987.423 476.947V486.66H985.024ZM977.71 482.289C977.71 483.86 978.881 484.889 980.738 484.889C983.167 484.889 984.681 483.375 984.681 481.061V479.832C983.567 479.689 982.767 479.661 982.024 479.661C979.138 479.661 977.71 480.518 977.71 482.289ZM1011.59 486.66L1009.74 481.575H1000.88L998.995 486.66H995.823L1003.68 466.147H1007.14L1014.94 486.66H1011.59ZM1005.34 469.576L1001.82 479.032H1008.79L1005.34 469.576Z" fill="#BBD5FD"/>
<path d="M264.564 642.265C255.284 642.265 249.972 648.985 249.972 659.097C249.972 669.529 255.988 675.225 264.628 675.225C272.756 675.225 277.684 670.745 277.684 663.257V663.065H263.54V655.833H285.3V682.137H278.388L277.876 676.761C275.316 680.345 270.004 682.841 263.668 682.841C250.548 682.841 241.396 673.305 241.396 658.905C241.396 644.697 250.676 634.585 264.756 634.585C275.444 634.585 283.7 640.793 285.044 650.329H276.404C274.932 644.825 270.196 642.265 264.564 642.265ZM302.403 682.969C295.683 682.969 291.587 679.065 291.587 673.113C291.587 667.289 295.811 663.641 303.299 663.065L312.771 662.361V661.657C312.771 657.369 310.211 655.641 306.243 655.641C301.635 655.641 299.075 657.561 299.075 660.889H292.419C292.419 654.041 298.051 649.561 306.627 649.561C315.139 649.561 320.387 654.169 320.387 662.937V682.137H313.539L312.963 677.465C311.619 680.729 307.331 682.969 302.403 682.969ZM304.963 677.081C309.763 677.081 312.835 674.201 312.835 669.337V667.673L306.243 668.185C301.379 668.633 299.523 670.233 299.523 672.793C299.523 675.673 301.443 677.081 304.963 677.081ZM349.497 650.521H357.305V682.137H350.073L349.497 677.913C347.577 680.921 343.481 682.969 339.257 682.969C331.961 682.969 327.673 678.041 327.673 670.297V650.521H335.481V667.545C335.481 673.561 337.849 675.993 342.201 675.993C347.129 675.993 349.497 673.113 349.497 667.097V650.521ZM373.178 682.137H365.37V650.521H372.602L373.242 654.617C375.226 651.417 379.066 649.561 383.354 649.561C391.29 649.561 395.386 654.489 395.386 662.681V682.137H387.578V664.537C387.578 659.225 384.954 656.665 380.922 656.665C376.122 656.665 373.178 659.993 373.178 665.113V682.137ZM413.809 682.137H406.001V657.049H399.921V650.521H406.001V640.665H413.809V650.521H419.953V657.049H413.809V682.137ZM432.679 682.137H424.935V634.521H432.679V682.137ZM455.014 682.969C445.606 682.969 439.014 676.121 439.014 666.329C439.014 656.409 445.478 649.561 454.758 649.561C464.23 649.561 470.246 655.897 470.246 665.753V668.121L446.438 668.185C447.014 673.753 449.958 676.569 455.142 676.569C459.43 676.569 462.246 674.905 463.142 671.897H470.374C469.03 678.809 463.27 682.969 455.014 682.969ZM454.822 655.961C450.214 655.961 447.398 658.457 446.63 663.193H462.502C462.502 658.841 459.494 655.961 454.822 655.961ZM486.934 682.137H479.126V657.049H473.046V650.521H479.126V640.665H486.934V650.521H493.078V657.049H486.934V682.137ZM526.062 682.137L512.11 635.353H520.622L528.046 660.057C528.75 662.617 529.454 665.241 530.158 669.337C530.926 665.177 531.63 662.745 532.462 660.057L539.822 635.353H548.846L556.078 660.057C556.846 662.681 557.55 665.369 558.318 669.337C559.214 664.985 559.854 662.489 560.558 660.121L568.11 635.353H576.43L562.222 682.137H554.286L544.302 648.089L534.126 682.137H526.062ZM611.64 682.137H582.584V635.353H611.64V642.905H590.776V654.937H609.464V662.169H590.776V674.585H611.64V682.137ZM616.426 642.905V635.353H652.01V642.905H638.314V682.137H630.122V642.905H616.426ZM666.464 682.137H658.272V635.353H666.464V654.681H687.2V635.353H695.392V682.137H687.2V662.297H666.464V682.137ZM741.518 666.009H731.214V682.137H723.022V635.353H741.518C750.926 635.353 757.006 641.497 757.006 650.649C757.006 659.673 750.862 666.009 741.518 666.009ZM739.918 642.649H731.214V658.713H739.79C745.422 658.713 748.43 655.705 748.43 650.585C748.43 645.465 745.358 642.649 739.918 642.649ZM782.585 650.393V657.625H779.705C774.073 657.625 770.553 660.633 770.553 666.777V682.137H762.745V650.585H770.105L770.553 655.193C771.897 652.057 774.905 649.945 779.129 649.945C780.217 649.945 781.305 650.073 782.585 650.393ZM791.774 644.185C789.086 644.185 786.974 642.073 786.974 639.449C786.974 636.825 789.086 634.777 791.774 634.777C794.334 634.777 796.446 636.825 796.446 639.449C796.446 642.073 794.334 644.185 791.774 644.185ZM787.87 682.137V650.521H795.678V682.137H787.87ZM811.553 682.137H803.745V650.521H810.913L811.553 654.233C813.153 651.609 816.353 649.561 820.897 649.561C825.697 649.561 829.025 651.929 830.689 655.577C832.289 651.929 836.001 649.561 840.801 649.561C848.481 649.561 852.705 654.169 852.705 661.465V682.137H844.961V663.513C844.961 658.969 842.529 656.601 838.817 656.601C835.041 656.601 832.161 659.033 832.161 664.217V682.137H824.353V663.449C824.353 659.033 821.985 656.665 818.273 656.665C814.561 656.665 811.553 659.097 811.553 664.217V682.137ZM874.514 682.969C865.106 682.969 858.514 676.121 858.514 666.329C858.514 656.409 864.978 649.561 874.258 649.561C883.73 649.561 889.746 655.897 889.746 665.753V668.121L865.938 668.185C866.514 673.753 869.458 676.569 874.642 676.569C878.93 676.569 881.746 674.905 882.642 671.897H889.874C888.53 678.809 882.77 682.969 874.514 682.969ZM874.322 655.961C869.714 655.961 866.898 658.457 866.13 663.193H882.002C882.002 658.841 878.994 655.961 874.322 655.961Z" fill="#09090B"/>
<path d="M252.962 809.137H248.701V785.159H239.636V781.324H262.026V785.159H252.962V809.137ZM288.491 781.324L278.264 809.137H273.577L263.351 781.324H267.922L276.018 804.179L284.23 781.324H288.491ZM308.97 809.137H292.12V781.324H296.381V805.302H308.97V809.137Z" fill="#858585"/>
<path d="M255.966 916.644V910.934C247.201 910.402 241.424 905.422 241.025 897.653H247.666C247.799 901.903 250.92 904.692 255.966 905.223V888.688L253.576 888.157C245.74 886.364 241.689 881.981 241.689 875.142C241.689 867.571 247.334 862.193 255.966 861.462V855.685H260.216V861.396C268.251 862.126 273.364 867.04 273.829 874.743H267.388C267.122 870.493 264.533 867.771 260.216 867.173V883.641L262.806 884.239C270.775 886.032 274.626 890.215 274.626 896.856C274.626 904.758 268.982 910.07 260.216 910.867V916.644H255.966ZM254.904 882.38L255.966 882.645V867.173C251.052 867.837 248.064 870.692 248.064 874.942C248.064 878.794 250.256 881.251 254.904 882.38ZM261.478 890.016L260.216 889.751V905.09C265.197 904.426 268.251 901.571 268.251 897.387C268.251 893.536 266.06 891.079 261.478 890.016ZM289.643 868.036H279.55V862.193H295.885V910.203H289.643V868.036ZM304.668 886.231C304.668 871.357 312.371 861.263 324.456 861.263C336.476 861.263 344.178 871.357 344.178 886.231C344.178 901.172 336.808 911.066 324.456 911.066C312.039 911.066 304.668 901.172 304.668 886.231ZM311.109 886.231C311.109 898.051 316.023 905.223 324.456 905.223C332.89 905.223 337.737 898.051 337.737 886.231C337.737 874.278 332.89 867.107 324.456 867.107C316.023 867.107 311.109 874.278 311.109 886.231ZM359.409 910.203H353.034V862.193H359.409L375.944 902.567L392.478 862.193H398.986V910.203H392.611V891.211C392.611 882.247 392.678 878.993 393.01 875.606L378.998 910.203H372.889L358.944 875.739C359.276 878.063 359.409 882.977 359.409 889.684V910.203Z" fill="#09090B"/>
<path d="M507.057 809.137L504.54 802.242H492.531L489.975 809.137H485.675L496.327 781.324H501.015L511.589 809.137H507.057ZM498.574 785.973L493.81 798.794H503.261L498.574 785.973ZM535.003 801.002C535.003 805.844 531.129 809.524 524.389 809.524C517.688 809.524 513.62 805.844 513.272 800.305H517.61C517.804 803.83 520.051 806.115 524.311 806.115C527.836 806.115 530.47 804.45 530.47 801.583C530.47 799.259 528.96 798.097 525.745 797.4L521.716 796.625C517.804 795.85 514.24 793.875 514.24 789.149C514.24 784.462 518.346 780.937 524.118 780.937C529.889 780.937 534.267 784.462 534.615 790.001H530.277C530.044 786.67 527.643 784.346 524.157 784.346C520.554 784.346 518.579 786.476 518.579 788.878C518.579 791.512 520.864 792.442 523.459 792.984L527.565 793.797C532.33 794.766 535.003 796.857 535.003 801.002ZM560.272 801.002C560.272 805.844 556.398 809.524 549.658 809.524C542.957 809.524 538.89 805.844 538.541 800.305H542.879C543.073 803.83 545.32 806.115 549.581 806.115C553.106 806.115 555.74 804.45 555.74 801.583C555.74 799.259 554.229 798.097 551.014 797.4L546.985 796.625C543.073 795.85 539.509 793.875 539.509 789.149C539.509 784.462 543.615 780.937 549.387 780.937C555.159 780.937 559.536 784.462 559.884 790.001H555.546C555.314 786.67 552.912 784.346 549.426 784.346C545.823 784.346 543.848 786.476 543.848 788.878C543.848 791.512 546.133 792.442 548.728 792.984L552.834 793.797C557.599 794.766 560.272 796.857 560.272 801.002ZM582.829 805.418V809.137H565.205V781.324H582.558V785.043H569.465V792.945H581.396V796.664H569.465V805.418H582.829ZM598.865 809.137H594.604V785.159H585.54V781.324H607.93V785.159H598.865V809.137Z" fill="#858585"/>
<path d="M501.966 916.644V910.934C493.201 910.402 487.424 905.422 487.025 897.653H493.666C493.799 901.903 496.92 904.692 501.966 905.223V888.688L499.576 888.157C491.74 886.364 487.689 881.981 487.689 875.142C487.689 867.571 493.334 862.193 501.966 861.462V855.685H506.216V861.396C514.251 862.126 519.364 867.04 519.829 874.743H513.388C513.122 870.493 510.533 867.771 506.216 867.173V883.641L508.806 884.239C516.775 886.032 520.626 890.215 520.626 896.856C520.626 904.758 514.982 910.07 506.216 910.867V916.644H501.966ZM500.904 882.38L501.966 882.645V867.173C497.052 867.837 494.064 870.692 494.064 874.942C494.064 878.794 496.256 881.251 500.904 882.38ZM507.478 890.016L506.216 889.751V905.09C511.197 904.426 514.251 901.571 514.251 897.387C514.251 893.536 512.06 891.079 507.478 890.016ZM538.499 910.203L524.222 862.193H530.995L539.76 891.543C540.424 894.067 541.088 896.59 541.752 900.242C542.549 896.391 543.28 894.067 544.01 891.543L553.108 862.193H560.146L569.177 891.543C569.974 894.133 570.638 896.657 571.369 900.242C572.166 896.192 572.83 893.735 573.494 891.61L582.326 862.193H588.966L574.49 910.203H568.248L556.627 872.22L544.873 910.203H538.499ZM624.817 910.203H595.532V862.193H624.817V868.169H602.04V883.177H622.559V888.954H602.04V904.16H624.817V910.203ZM629.598 868.169V862.193H664.992V868.169H650.582V910.203H644.074V868.169H629.598ZM678.042 910.203H671.534V862.193H678.042V882.844H701.815V862.193H708.322V910.203H701.815V888.887H678.042V910.203Z" fill="#09090B"/>
<path d="M816.057 809.137L813.54 802.242H801.531L798.975 809.137H794.675L805.327 781.324H810.015L820.589 809.137H816.057ZM807.574 785.973L802.81 798.794H812.261L807.574 785.973ZM834.068 799.453H828.684V809.137H824.423V781.324H834.068C840.305 781.324 844.333 784.501 844.333 790.311C844.333 796.16 840.305 799.453 834.068 799.453ZM834.029 784.927H828.684V795.85H834.029C837.787 795.85 840.072 793.797 840.072 790.35C840.072 786.902 837.787 784.927 834.029 784.927ZM859.61 798.717V809.137H855.31V798.717L845.316 781.324H849.964L857.595 794.727L865.304 781.324H869.642L859.61 798.717Z" fill="#858585"/>
<path d="M829.36 910.137L796.955 910.203V905.223L812.427 891.875C820.197 885.169 822.388 881.915 822.388 876.802C822.388 870.759 818.935 867.173 813.158 867.173C807.248 867.173 803.396 871.489 803.263 878.329H796.756C796.955 868.036 803.463 861.329 813.224 861.329C822.853 861.329 829.028 867.173 829.028 876.403C829.028 883.243 825.642 888.09 817.142 895.461L807.181 904.094H829.36V910.137ZM841.843 911C839.254 911 837.062 908.875 837.062 906.352C837.062 903.762 839.254 901.637 841.843 901.637C844.367 901.637 846.558 903.762 846.558 906.352C846.558 908.875 844.367 911 841.843 911ZM886.492 910.137L854.086 910.203V905.223L869.558 891.875C877.328 885.169 879.519 881.915 879.519 876.802C879.519 870.759 876.066 867.173 870.289 867.173C864.379 867.173 860.527 871.489 860.395 878.329H853.887C854.086 868.036 860.594 861.329 870.355 861.329C879.984 861.329 886.16 867.173 886.16 876.403C886.16 883.243 882.773 888.09 874.273 895.461L864.312 904.094H886.492V910.137ZM908.163 911C898.335 911 891.961 904.758 891.961 895.196H898.402C898.402 901.371 902.187 905.156 908.296 905.156C914.804 905.156 918.987 900.84 918.987 894.332C918.987 888.157 915.069 883.575 908.362 883.575C904.312 883.575 900.593 885.501 898.402 888.223L892.89 886.829L898.734 862.193H922.772V868.169H903.449L900.261 880.919C902.784 878.993 905.972 877.997 909.558 877.997C919.319 877.997 925.628 884.837 925.628 894.067C925.628 904.028 918.522 911 908.163 911ZM955.033 873.548C955.033 880.653 949.986 885.766 942.881 885.766C935.842 885.766 930.795 880.653 930.795 873.548C930.795 866.376 935.842 861.263 942.881 861.263C949.986 861.263 955.033 866.376 955.033 873.548ZM980.333 862.259L943.877 910.203H937.502L973.958 862.259H980.333ZM949.92 873.548C949.92 869.232 947.064 866.243 942.881 866.243C938.764 866.243 935.908 869.232 935.908 873.548C935.908 877.798 938.764 880.786 942.881 880.786C946.998 880.786 949.92 877.798 949.92 873.548ZM987.173 898.848C987.173 905.953 982.059 911.066 975.021 911.066C967.982 911.066 962.869 905.953 962.869 898.848C962.869 891.676 967.982 886.63 975.021 886.63C982.059 886.63 987.173 891.676 987.173 898.848ZM981.993 898.848C981.993 894.532 979.204 891.543 975.021 891.543C970.904 891.543 968.048 894.532 968.048 898.848C968.048 903.098 970.904 906.086 975.021 906.086C979.138 906.086 981.993 903.098 981.993 898.848Z" fill="#09090B"/>
<path d="M1713.18 279V232.216H1731.81C1741.02 232.216 1746.66 237.016 1746.66 244.824C1746.66 250.008 1744.35 253.72 1739.94 255.576C1744.86 257.176 1747.36 260.888 1747.36 266.328C1747.36 274.328 1741.79 279 1732.13 279H1713.18ZM1731.1 239.448H1721.38V252.184H1731.3C1735.78 252.184 1738.27 249.816 1738.27 245.656C1738.27 241.624 1735.71 239.448 1731.1 239.448ZM1731.81 259.096H1721.38V271.768H1731.81C1736.42 271.768 1738.98 269.528 1738.98 265.304C1738.98 261.336 1736.35 259.096 1731.81 259.096ZM1758.28 279H1749.77L1766.66 232.216H1775.05L1791.94 279H1783.3L1779.53 268.184H1762.05L1758.28 279ZM1769.8 246.168L1764.49 261.272H1777.16L1771.78 246.168C1771.4 244.952 1770.95 243.544 1770.82 242.584C1770.63 243.48 1770.25 244.888 1769.8 246.168ZM1795.12 245.272C1795.12 237.08 1801.91 231.384 1811.76 231.384C1821.23 231.384 1827.25 236.632 1827.51 245.08H1819.31C1819.12 241.048 1816.24 238.68 1811.63 238.68C1806.58 238.68 1803.31 241.112 1803.31 245.016C1803.31 248.344 1805.11 250.2 1809.01 251.096L1816.37 252.696C1824.37 254.424 1828.27 258.52 1828.27 265.496C1828.27 274.2 1821.49 279.832 1811.19 279.832C1801.2 279.832 1794.67 274.52 1794.48 266.136H1802.67C1802.74 270.104 1805.94 272.472 1811.19 272.472C1816.63 272.472 1820.08 270.104 1820.08 266.2C1820.08 263.064 1818.48 261.208 1814.64 260.376L1807.22 258.712C1799.28 256.984 1795.12 252.44 1795.12 245.272ZM1864.74 279H1835.68V232.216H1864.74V239.768H1843.88V251.8H1862.56V259.032H1843.88V271.448H1864.74V279ZM1903.99 279L1886.33 232.216H1895.03L1905.27 259.16C1906.3 261.976 1907.19 264.728 1908.22 268.504C1909.37 264.408 1910.33 261.528 1911.22 259.16L1921.34 232.216H1929.85L1912.44 279H1903.99ZM1932.9 279H1924.39L1941.29 232.216H1949.67L1966.57 279H1957.93L1954.15 268.184H1936.68L1932.9 279ZM1944.42 246.168L1939.11 261.272H1951.78L1946.41 246.168C1946.02 244.952 1945.58 243.544 1945.45 242.584C1945.26 243.48 1944.87 244.888 1944.42 246.168ZM1970.18 261.912V232.216H1978.37V261.4C1978.37 268.12 1982.02 271.832 1988.67 271.832C1995.33 271.832 1999.04 268.056 1999.04 261.4V232.216H2007.23V261.912C2007.23 272.856 2000.06 279.768 1988.67 279.768C1977.34 279.768 1970.18 272.92 1970.18 261.912ZM2025.5 232.216V271.448H2045.09V279H2017.31V232.216H2025.5ZM2042.71 239.768V232.216H2078.3V239.768H2064.6V279H2056.41V239.768H2042.71Z" fill="#09090B"/>
<defs>
<clipPath id="clip0_915_2">
<rect width="552.366" height="111.415" fill="white" transform="translate(1617.63 1149.79)"/>
</clipPath>
<clipPath id="clip1_915_2">
<rect width="100.2" height="120" fill="white" transform="translate(1495.9 447.137)"/>
</clipPath>
<clipPath id="clip2_915_2">
<rect width="100.2" height="120" fill="white" transform="translate(238.9 447.137)"/>
</clipPath>
</defs>
</svg>
