<svg xmlns="http://www.w3.org/2000/svg" version="1.1" xmlns:xlink="http://www.w3.org/1999/xlink" xmlns:svgjs="http://svgjs.dev/svgjs" width="1500" height="1500" viewBox="0 0 1500 1500"><rect width="1500" height="1500" fill="#000000"></rect><g transform="matrix(0.6666666666666666,0,0,0.6666666666666666,249.39393939393938,609.46507393996)"><svg viewBox="0 0 396 111" data-background-color="#ffffff" preserveAspectRatio="xMidYMid meet" height="420" width="1500" xmlns="http://www.w3.org/2000/svg" xmlns:xlink="http://www.w3.org/1999/xlink"><g id="tight-bounds" transform="matrix(1,0,0,1,0.2400000000000091,0.2120599738015585)"><svg viewBox="0 0 395.52 110.57588005239687" height="110.57588005239687" width="395.52"><g><svg viewBox="0 0 587.8897748753063 164.35687002083958" height="110.57588005239687" width="395.52"><g transform="matrix(1,0,0,1,192.36977487530635,22.71502328073833)"><svg viewBox="0 0 395.52 118.92682345936292" height="118.92682345936292" width="395.52"><g id="textblocktransform"><svg viewBox="0 0 395.52 118.92682345936292" height="118.92682345936292" width="395.52" id="textblock"><g><svg viewBox="0 0 395.52 118.92682345936292" height="118.92682345936292" width="395.52"><g transform="matrix(1,0,0,1,0,0)"><svg width="395.52" viewBox="1.75 -39.65 167.93 50.5" height="118.92682345936292" data-palette-color="#093d65"><path d="M14.5-35.25Q17.15-35.25 19.18-34.38 21.2-33.5 23.1-31.7L23.1-31.7 20.05-28.05Q18.75-29.25 17.53-29.83 16.3-30.4 14.85-30.4L14.85-30.4Q11.85-30.4 10.15-27.4 8.45-24.4 8.45-17.35L8.45-17.35Q8.45-10.4 10.15-7.38 11.85-4.35 14.95-4.35L14.95-4.35Q16.5-4.35 17.65-4.98 18.8-5.6 20.35-6.9L20.35-6.9 23.4-3.4Q21.8-1.6 19.55-0.43 17.3 0.75 14.5 0.75L14.5 0.75Q8.65 0.75 5.2-3.8 1.75-8.35 1.75-17.35L1.75-17.35Q1.75-23.3 3.4-27.3 5.05-31.3 7.93-33.27 10.8-35.25 14.5-35.25L14.5-35.25ZM43.55-6.4Q43.55-5.1 43.9-4.48 44.25-3.85 45.05-3.45L45.05-3.45 43.8 0.65Q41.75 0.4 40.52-0.45 39.3-1.3 38.7-3.05L38.7-3.05Q36.4 0.75 32.25 0.75L32.25 0.75Q28.95 0.75 27-1.48 25.05-3.7 25.05-7.4L25.05-7.4Q25.05-11.7 27.72-13.95 30.4-16.2 35.5-16.2L35.5-16.2 37.55-16.2 37.55-18.05Q37.55-20.55 36.67-21.58 35.8-22.6 33.85-22.6L33.85-22.6Q31.5-22.6 28-21.3L28-21.3 26.6-25.3Q28.6-26.2 30.75-26.68 32.9-27.15 34.85-27.15L34.85-27.15Q43.55-27.15 43.55-18.35L43.55-18.35 43.55-6.4ZM33.9-3.7Q36.3-3.7 37.55-7L37.55-7 37.55-12.55 36.1-12.55Q33.55-12.55 32.37-11.4 31.2-10.25 31.2-7.85L31.2-7.85Q31.2-5.8 31.9-4.75 32.6-3.7 33.9-3.7L33.9-3.7ZM60.5-5L62.65-1.2Q60.2 0.75 56.9 0.75L56.9 0.75Q53.45 0.75 51.65-1.23 49.85-3.2 49.85-6.6L49.85-6.6 49.85-22 46.75-22 46.75-26.45 49.85-26.45 49.85-32.3 56-33.05 56-26.45 61-26.45 60.4-22 56-22 56-6.6Q56-4.2 58.05-4.2L58.05-4.2Q58.7-4.2 59.2-4.38 59.7-4.55 60.5-5L60.5-5ZM82.09-6.4Q82.09-5.1 82.44-4.48 82.79-3.85 83.59-3.45L83.59-3.45 82.34 0.65Q80.29 0.4 79.07-0.45 77.84-1.3 77.24-3.05L77.24-3.05Q74.94 0.75 70.79 0.75L70.79 0.75Q67.49 0.75 65.54-1.48 63.59-3.7 63.59-7.4L63.59-7.4Q63.59-11.7 66.27-13.95 68.94-16.2 74.04-16.2L74.04-16.2 76.09-16.2 76.09-18.05Q76.09-20.55 75.22-21.58 74.34-22.6 72.39-22.6L72.39-22.6Q70.04-22.6 66.54-21.3L66.54-21.3 65.14-25.3Q67.14-26.2 69.29-26.68 71.44-27.15 73.39-27.15L73.39-27.15Q82.09-27.15 82.09-18.35L82.09-18.35 82.09-6.4ZM72.44-3.7Q74.84-3.7 76.09-7L76.09-7 76.09-12.55 74.64-12.55Q72.09-12.55 70.92-11.4 69.74-10.25 69.74-7.85L69.74-7.85Q69.74-5.8 70.44-4.75 71.14-3.7 72.44-3.7L72.44-3.7ZM93.49 0.75Q90.79 0.75 89.22-0.93 87.64-2.6 87.64-5.4L87.64-5.4 87.64-37.05 93.79-37.7 93.79-5.65Q93.79-5 94.09-4.6 94.39-4.2 94.99-4.2L94.99-4.2Q95.34-4.2 95.67-4.3 95.99-4.4 96.09-4.4L96.09-4.4 97.29-0.2Q95.59 0.75 93.49 0.75L93.49 0.75ZM118.99-26.45L111.99 0.1Q110.69 4.9 107.79 7.65 104.89 10.4 100.04 10.85L100.04 10.85 99.34 6.5Q102.49 5.85 104.06 4.42 105.64 3 106.54 0L106.54 0 104.24 0 97.54-26.45 103.79-26.45 108.19-4.1 112.89-26.45 118.99-26.45ZM129.24-27.15Q133.94-27.15 137.19-24.05L137.19-24.05 134.84-20.7Q133.44-21.7 132.19-22.2 130.94-22.7 129.64-22.7L129.64-22.7Q128.19-22.7 127.36-21.93 126.54-21.15 126.54-19.8L126.54-19.8Q126.54-18.45 127.46-17.63 128.39-16.8 131.19-15.7L131.19-15.7Q134.64-14.35 136.29-12.5 137.94-10.65 137.94-7.55L137.94-7.55Q137.94-3.7 135.24-1.48 132.54 0.75 128.39 0.75L128.39 0.75Q125.69 0.75 123.41-0.23 121.14-1.2 119.44-2.95L119.44-2.95 122.44-6.25Q125.24-3.8 128.14-3.8L128.14-3.8Q129.79-3.8 130.74-4.67 131.69-5.55 131.69-7.1L131.69-7.1Q131.69-8.25 131.29-8.97 130.89-9.7 129.89-10.33 128.89-10.95 126.89-11.7L126.89-11.7Q123.44-13.05 121.96-14.85 120.49-16.65 120.49-19.45L120.49-19.45Q120.49-22.8 122.86-24.98 125.24-27.15 129.24-27.15L129.24-27.15ZM141.78-26.45L147.93-26.45 147.93 0 141.78 0 141.78-26.45ZM144.83-39.65Q146.48-39.65 147.51-38.6 148.53-37.55 148.53-35.9L148.53-35.9Q148.53-34.3 147.51-33.25 146.48-32.2 144.83-32.2L144.83-32.2Q143.18-32.2 142.16-33.25 141.13-34.3 141.13-35.9L141.13-35.9Q141.13-37.55 142.16-38.6 143.18-39.65 144.83-39.65L144.83-39.65ZM160.98-27.15Q165.68-27.15 168.93-24.05L168.93-24.05 166.58-20.7Q165.18-21.7 163.93-22.2 162.68-22.7 161.38-22.7L161.38-22.7Q159.93-22.7 159.11-21.93 158.28-21.15 158.28-19.8L158.28-19.8Q158.28-18.45 159.21-17.63 160.13-16.8 162.93-15.7L162.93-15.7Q166.38-14.35 168.03-12.5 169.68-10.65 169.68-7.55L169.68-7.55Q169.68-3.7 166.98-1.48 164.28 0.75 160.13 0.75L160.13 0.75Q157.43 0.75 155.16-0.23 152.88-1.2 151.18-2.95L151.18-2.95 154.18-6.25Q156.98-3.8 159.88-3.8L159.88-3.8Q161.53-3.8 162.48-4.67 163.43-5.55 163.43-7.1L163.43-7.1Q163.43-8.25 163.03-8.97 162.63-9.7 161.63-10.33 160.63-10.95 158.63-11.7L158.63-11.7Q155.18-13.05 153.71-14.85 152.23-16.65 152.23-19.45L152.23-19.45Q152.23-22.8 154.61-24.98 156.98-27.15 160.98-27.15L160.98-27.15Z" opacity="1" transform="matrix(1,0,0,1,0,0)" fill="#ffffff" class="wordmark-text-0" data-fill-palette-color="primary" id="text-0"></path></svg></g></svg></g></svg></g></svg></g><g><svg viewBox="0 0 164.2940061003138 164.35687002083958" height="164.35687002083958" width="164.2940061003138"><g><svg xmlns="http://www.w3.org/2000/svg" xmlns:xlink="http://www.w3.org/1999/xlink" version="1.1" x="0" y="0" viewBox="0.5080328697402028 0.5 46.982023238430266 47" style="enable-background:new 0 0 48 48;" xml:space="preserve" height="164.35687002083958" width="164.2940061003138" class="icon-icon-0" data-fill-palette-color="accent" id="icon-0"><g fill="#f98e54" data-fill-palette-color="accent"><path d="M42.6 9.6S42.5 9.7 42.6 9.6L36.8 15.1C37.9 16.6 38.7 18.3 39.3 20.1 40.3 23.5 40.1 27.1 38.8 30.4L45.3 34C49.1 25.8 47.8 16.4 42.6 9.6" fill="#ffffff" data-fill-palette-color="accent"></path><path d="M21.8 0.7L23.4 8.6H23.9C26.6 8.6 29.2 9.3 31.6 10.6 32.5 11.1 33.3 11.6 34 12.3L39.7 6.9 39.8 6.8C38.4 5.5 36.9 4.4 35.2 3.5 31.9 1.5 28 0.5 24 0.5 23.3 0.5 22.5 0.5 21.8 0.6z" fill="#ffffff" data-fill-palette-color="accent"></path><path d="M36.8 33.8C33.8 37.9 29.1 40.3 24 40.3 21.3 40.3 18.7 39.6 16.3 38.3 9.2 34.4 6.3 25.8 9.3 18.5L2.4 14.7C-2.3 25.7 2 38.7 12.6 44.6 16.1 46.5 20 47.5 24 47.5 31.8 47.5 39 43.7 43.3 37.4z" fill="#ffffff" data-fill-palette-color="accent"></path><path d="M29.8 14C28 13 26 12.5 24 12.5 19.6 12.5 15.6 14.9 13.5 18.7 10.3 24.5 12.4 31.8 18.2 35 20 36 22 36.5 24 36.5 28.4 36.5 32.4 34.1 34.5 30.3 36 27.5 36.4 24.3 35.5 21.2S32.6 15.5 29.8 14" fill="#ffffff" data-fill-palette-color="accent"></path><path d="M11.2 15.1C13.3 12.2 16.3 10.2 19.6 9.2L18 1.5V1.3C12.4 2.8 7.5 6.3 4.3 11.3z" fill="#ffffff" data-fill-palette-color="accent"></path></g></svg></g></svg></g></svg></g><defs></defs></svg><rect width="395.52" height="110.57588005239687" fill="none" stroke="none" visibility="hidden"></rect></g></svg></g></svg>