<?xml version="1.0" encoding="UTF-8"?>
<svg version="1.1" xmlns="http://www.w3.org/2000/svg" width="350" height="136">
<path d="M0 0 C0.94552734 0.16242187 0.94552734 0.16242187 1.91015625 0.328125 C3.93189557 3.36073397 4.20354063 4.41502537 4.47265625 7.890625 C4.72476063 11.23469732 4.72476063 11.23469732 5.91015625 14.328125 C6.54824219 14.31652344 7.18632812 14.30492187 7.84375 14.29296875 C8.67003906 14.28394531 9.49632812 14.27492188 10.34765625 14.265625 C11.17136719 14.25402344 11.99507812 14.24242187 12.84375 14.23046875 C14.91015625 14.328125 14.91015625 14.328125 15.91015625 15.328125 C16.06670652 16.81451492 16.16082568 18.30761627 16.2265625 19.80078125 C16.26845703 20.69990234 16.31035156 21.59902344 16.35351562 22.52539062 C16.39283203 23.47091797 16.43214844 24.41644531 16.47265625 25.390625 C16.51583984 26.34001953 16.55902344 27.28941406 16.60351562 28.26757812 C16.70994901 30.62093853 16.81196633 32.97440854 16.91015625 35.328125 C18.89015625 35.328125 20.87015625 35.328125 22.91015625 35.328125 C22.92997559 34.76303223 22.94979492 34.19793945 22.97021484 33.61572266 C23.06533861 31.06104503 23.17506683 28.50719959 23.28515625 25.953125 C23.3315625 24.61894531 23.3315625 24.61894531 23.37890625 23.2578125 C23.41757813 22.40703125 23.45625 21.55625 23.49609375 20.6796875 C23.52751465 19.89416504 23.55893555 19.10864258 23.59130859 18.29931641 C23.91015625 16.328125 23.91015625 16.328125 25.91015625 14.328125 C28.62470581 14.00060266 31.16246384 14.1972825 33.91015625 14.328125 C36.02941229 16.44738104 35.32846642 20.9477343 35.47265625 23.890625 C35.51583984 24.69693359 35.55902344 25.50324219 35.60351562 26.33398438 C35.70990887 28.33181305 35.81056513 30.3299457 35.91015625 32.328125 C36.57015625 32.328125 37.23015625 32.328125 37.91015625 32.328125 C37.41515625 31.338125 37.41515625 31.338125 36.91015625 30.328125 C35.64596157 26.53554097 34.88485856 23.26240685 35.91015625 19.328125 C38.73517375 15.83334651 42.49331156 14.14725915 46.84765625 13.328125 C51.42580969 12.9979268 54.7891346 14.40971837 58.91015625 16.328125 C59.90015625 17.318125 59.90015625 17.318125 60.91015625 18.328125 C61.91232689 14.74484747 61.91232689 14.74484747 60.91015625 11.328125 C60.62219079 8.01652219 60.5642512 5.96804934 62.16015625 3.015625 C64.22444799 1.02505797 65.0252725 0.328125 67.91015625 0.328125 C71.30691656 2.05980673 73.43605768 3.17250975 74.91015625 6.765625 C74.91015625 9.328125 74.91015625 9.328125 73.88671875 11.5 C72.62706879 15.14794628 72.92454859 18.37227492 73.28515625 22.140625 C73.341875 22.83349609 73.39859375 23.52636719 73.45703125 24.24023438 C73.59746229 25.93710946 73.75235032 27.63277748 73.91015625 29.328125 C73.86375 28.65265625 73.81734375 27.9771875 73.76953125 27.28125 C73.47812995 20.07947508 73.47812995 20.07947508 75.34765625 16.828125 C79.82788989 14.20554921 84.19427526 12.84054951 89.390625 13.7734375 C93.28652253 14.98097507 96.30038847 16.07197511 98.91015625 19.328125 C99.33494211 23.40606925 99.22298212 24.85888619 96.91015625 28.328125 C97.42578125 29.00875 97.94140625 29.689375 98.47265625 30.390625 C100.37070053 34.26923722 100.08821504 36.20491925 98.91015625 40.328125 C95.90060735 43.97126314 93.67588221 46.05418643 88.859375 46.53125 C83.74744812 46.63719667 80.35273024 46.14536704 75.91015625 43.328125 C75.25015625 42.668125 74.59015625 42.008125 73.91015625 41.328125 C73.63171875 42.2871875 73.63171875 42.2871875 73.34765625 43.265625 C71.91015625 45.328125 71.91015625 45.328125 68.41015625 46.140625 C64.91015625 46.328125 64.91015625 46.328125 62.91015625 45.328125 C61.78515625 43.265625 61.78515625 43.265625 60.91015625 41.328125 C60.12640625 41.9675 59.34265625 42.606875 58.53515625 43.265625 C53.60912634 47.13607708 49.02882062 46.97446279 42.91015625 46.328125 C39.75445416 45.04269423 37.47039869 43.44860987 35.91015625 40.328125 C35.82378906 41.05257812 35.73742187 41.77703125 35.6484375 42.5234375 C34.71068937 48.97583291 33.79604365 52.89673875 28.91015625 57.328125 C24.63140778 59.94291573 19.78691485 59.89579002 14.91015625 59.328125 C10.03482422 57.43216254 7.00052945 55.5088714 4.66015625 50.828125 C3.91015625 48.328125 3.91015625 48.328125 4.91015625 45.328125 C5.90015625 44.833125 5.90015625 44.833125 6.91015625 44.328125 C6.41515625 42.843125 6.41515625 42.843125 5.91015625 41.328125 C5.60078125 42.153125 5.29140625 42.978125 4.97265625 43.828125 C2.91015625 46.328125 2.91015625 46.328125 0.70703125 46.66015625 C-1.57601774 46.64220775 -3.81722071 46.5425234 -6.08984375 46.328125 C-8.23825359 42.03130532 -7.50056372 36.36705259 -7.64746094 31.59179688 C-7.71350233 29.49570054 -7.79175142 27.40031679 -7.87109375 25.3046875 C-8.14681985 17.29578387 -8.30504185 9.27642075 -7.08984375 1.328125 C-5.19856033 -0.56315842 -2.51916649 0.0914398 0 0 Z M56.91015625 26.328125 C58.26548885 28.86485788 58.26548885 28.86485788 59.91015625 31.328125 C60.57015625 31.328125 61.23015625 31.328125 61.91015625 31.328125 C61.91015625 29.678125 61.91015625 28.028125 61.91015625 26.328125 C60.26015625 26.328125 58.61015625 26.328125 56.91015625 26.328125 Z M16.91015625 46.328125 C16.91015625 47.318125 16.91015625 48.308125 16.91015625 49.328125 C18.89015625 49.328125 20.87015625 49.328125 22.91015625 49.328125 C22.58015625 48.338125 22.25015625 47.348125 21.91015625 46.328125 C20.26015625 46.328125 18.61015625 46.328125 16.91015625 46.328125 Z " fill="#070906" transform="translate(231.08984375,39.671875)"/>
<path d="M0 0 C1.47906892 -0.02689216 2.95827483 -0.04634621 4.4375 -0.0625 C5.26121094 -0.07410156 6.08492188 -0.08570313 6.93359375 -0.09765625 C9 0 9 0 10 1 C10.04092937 3.33297433 10.04241723 5.66705225 10 8 C12.31 8.33 14.62 8.66 17 9 C17 9.99 17 10.98 17 12 C17.99 11.360625 18.98 10.72125 20 10.0625 C25.9537292 6.67067852 31.34051304 6.80129235 38 8 C39.73139012 8.03815502 41.46354838 8.04782769 43.1953125 8.03515625 C44.54520264 8.02754272 44.54520264 8.02754272 45.92236328 8.01977539 C46.95079346 8.00998657 46.95079346 8.00998657 48 8 C48.04938628 12.23582327 48.08571263 16.47149465 48.10986328 20.70751953 C48.11992963 22.14895547 48.1335838 23.59037095 48.15087891 25.03173828 C48.17510012 27.10193934 48.18647641 29.17187076 48.1953125 31.2421875 C48.20578613 32.4885498 48.21625977 33.73491211 48.22705078 35.01904297 C48 38 48 38 46 40 C44.01635742 40.25878906 44.01635742 40.25878906 41.60546875 40.265625 C40.29545898 40.26949219 40.29545898 40.26949219 38.95898438 40.2734375 C38.04439453 40.26570313 37.12980469 40.25796875 36.1875 40.25 C35.28451172 40.25773437 34.38152344 40.26546875 33.45117188 40.2734375 C27.21676661 40.25511449 23.25784953 39.50523302 18 36 C17.484375 36.66 16.96875 37.32 16.4375 38 C14 40 14 40 10.625 40.5 C6.39398999 39.91641241 4.29049934 38.67831341 1 36 C-1.45391569 32.31912647 -1.22802759 29.55644412 -1.125 25.3125 C-1.11597656 24.61060547 -1.10695313 23.90871094 -1.09765625 23.18554688 C-1.07413704 21.45688475 -1.03826713 19.72839855 -1 18 C-2.485 18.495 -2.485 18.495 -4 19 C-4.01981934 19.56509277 -4.03963867 20.13018555 -4.06005859 20.71240234 C-4.15518236 23.26707997 -4.26491058 25.82092541 -4.375 28.375 C-4.42140625 29.70917969 -4.42140625 29.70917969 -4.46875 31.0703125 C-4.50742188 31.92109375 -4.54609375 32.771875 -4.5859375 33.6484375 C-4.6173584 34.43395996 -4.6487793 35.21948242 -4.68115234 36.02880859 C-5 38 -5 38 -7 40 C-10.0408368 40.44900137 -13.11731798 40.32403337 -16.1875 40.3125 C-17.44530273 40.33666992 -17.44530273 40.33666992 -18.72851562 40.36132812 C-25.38329436 40.36652311 -30.33275758 39.3936791 -35.4375 34.8125 C-35.953125 34.214375 -36.46875 33.61625 -37 33 C-37.4125 33.42152344 -37.825 33.84304687 -38.25 34.27734375 C-41.93677832 37.7748455 -44.73171062 39.84741314 -49.88671875 40.09765625 C-54.44533355 39.88699937 -58.93829976 39.6613701 -62.609375 36.703125 C-66.13382651 32.68110386 -67.78141797 28.93080797 -68.375 23.6875 C-67.81353827 18.16645965 -66.07261933 13.72718278 -61.75 10.125 C-54.94383254 7.34065877 -50.91120969 6.32974998 -43.98828125 8.99609375 C-41.4762491 10.2644479 -39.74449317 11.80042165 -38 14 C-35.4842729 12.83889519 -33.43784718 11.5877546 -31.1875 9.9375 C-26.66991406 7.19151639 -23.01779524 6.6834831 -17.8125 7.5 C-12.46211994 8.20168919 -7.34592879 7.57058353 -2 7 C-1.34 4.69 -0.68 2.38 0 0 Z M-57 20 C-57.3176246 21.91006306 -57.3176246 21.91006306 -57.25 24 C-57.25515625 24.70125 -57.2603125 25.4025 -57.265625 26.125 C-57.15705515 28.2435669 -57.15705515 28.2435669 -55 30 C-51.16551303 30.51126493 -49.56461348 30.42690288 -46.4375 28.0625 C-45.633125 27.381875 -44.82875 26.70125 -44 26 C-41.1875 25.25 -41.1875 25.25 -39 25 C-40.97364769 22.8155338 -40.97364769 22.8155338 -44 21.5 C-47 20 -47 20 -49 18 C-53.50480277 17.4895042 -53.50480277 17.4895042 -57 20 Z M-25.9375 19.0625 C-27.59162584 22.07884711 -27.30575763 24.63666608 -27 28 C-24.67471713 30.32528287 -24.15334102 30.29511025 -21 30.3125 C-19.948125 30.33763672 -19.948125 30.33763672 -18.875 30.36328125 C-18.25625 30.24339844 -17.6375 30.12351562 -17 30 C-14.68667514 26.53001271 -14.66042437 25.07490752 -15 21 C-15.66 20.01 -16.32 19.02 -17 18 C-20.39471203 17.62966778 -22.88907484 17.39078298 -25.9375 19.0625 Z M10 18 C10 21.63 10 25.26 10 29 C11.32 29.33 12.64 29.66 14 30 C15.3271261 26.0186217 15.06915913 22.14954773 15 18 C13.35 18 11.7 18 10 18 Z M26 19 C25.22188282 22.81984796 24.75613444 25.26840331 26 29 C29.01324195 30.50662097 31.68286377 30.17770373 35 30 C37.15705515 28.2435669 37.15705515 28.2435669 37.265625 26.125 C37.26046875 25.42375 37.2553125 24.7225 37.25 24 C37.25515625 23.29875 37.2603125 22.5975 37.265625 21.875 C37.15705515 19.7564331 37.15705515 19.7564331 35 18 C30.34805286 17.65783765 30.34805286 17.65783765 26 19 Z " fill="#030802" transform="translate(174,46)"/>
<path d="M0 0 C0.90194092 0.00193359 1.80388184 0.00386719 2.7331543 0.00585938 C11.17782112 0.05928315 19.57982753 0.50700569 28 1.125 C27.835 2.424375 27.67 3.72375 27.5 5.0625 C26.85875715 11.06000664 26.3902055 16.59200746 27.8125 22.5 C31.31540138 26.70348166 35.72818313 27.32977145 41 28.125 C43.72376822 28.25661833 46.3785444 28.26166194 49.1015625 28.1328125 C49.72804688 28.13023438 50.35453125 28.12765625 51 28.125 C52 29.125 52 29.125 52.125 32.625 C52 36.125 52 36.125 51 37.125 C47.47712919 37.32911483 43.96115684 37.47140608 40.43359375 37.5546875 C35.84019101 37.74508761 32.74830853 38.18966434 29 41.125 C25.71178229 46.44878105 26.685451 53.14334128 27.625 59.0625 C27.74875 60.073125 27.8725 61.08375 28 62.125 C26 64.125 26 64.125 23.50390625 64.35546875 C22.53324219 64.34128906 21.56257813 64.32710938 20.5625 64.3125 C19.59441406 64.30605469 18.62632813 64.29960938 17.62890625 64.29296875 C15 64.125 15 64.125 12 63.125 C11.67 63.455 11.34 63.785 11 64.125 C9.0437407 64.22427286 7.08377091 64.25469729 5.125 64.25 C4.05507813 64.25257812 2.98515625 64.25515625 1.8828125 64.2578125 C-1 64.125 -1 64.125 -4 63.125 C-4.495 63.62 -4.495 63.62 -5 64.125 C-7.1420966 64.27654969 -9.29023462 64.34677745 -11.4375 64.375 C-12.61183594 64.40078125 -13.78617188 64.4265625 -14.99609375 64.453125 C-15.98738281 64.34484375 -16.97867187 64.2365625 -18 64.125 C-20.84724274 59.8541359 -19.81155282 57.08456267 -18.88671875 52.1953125 C-17.55245985 47.57536757 -15.26393041 44.58136168 -12 41.125 C-11.37996094 40.45082031 -10.75992187 39.77664062 -10.12109375 39.08203125 C-6.80512309 35.61376131 -6.80512309 35.61376131 -5 34.125 C-4.34 34.125 -3.68 34.125 -3 34.125 C-5.03054074 30.3558493 -7.07182467 28.05398622 -10.4375 25.4375 C-15.97543561 20.63013896 -18.63838972 15.61141908 -19.23046875 8.265625 C-19.2474059 5.86732427 -19.14985994 3.51696171 -19 1.125 C-12.62652107 0.31546538 -6.42149035 -0.03373707 0 0 Z " fill="#1A1A18" transform="translate(41,35.875)"/>
<path d="M0 0 C0.94552734 0.16242187 0.94552734 0.16242187 1.91015625 0.328125 C3.93189557 3.36073397 4.20354063 4.41502537 4.47265625 7.890625 C4.72476063 11.23469732 4.72476063 11.23469732 5.91015625 14.328125 C6.54824219 14.31652344 7.18632812 14.30492187 7.84375 14.29296875 C8.67003906 14.28394531 9.49632812 14.27492188 10.34765625 14.265625 C11.17136719 14.25402344 11.99507812 14.24242187 12.84375 14.23046875 C14.91015625 14.328125 14.91015625 14.328125 15.91015625 15.328125 C15.99729456 17.03584858 16.01715632 18.74711149 16.0078125 20.45703125 C16.00458984 21.49150391 16.00136719 22.52597656 15.99804688 23.59179688 C15.98966797 24.68041016 15.98128906 25.76902344 15.97265625 26.890625 C15.96814453 27.98310547 15.96363281 29.07558594 15.95898438 30.20117188 C15.94715451 32.91020995 15.93067168 35.61914099 15.91015625 38.328125 C18.88015625 38.328125 21.85015625 38.328125 24.91015625 38.328125 C25.24015625 31.068125 25.57015625 23.808125 25.91015625 16.328125 C28.22015625 16.328125 30.53015625 16.328125 32.91015625 16.328125 C34.44116402 22.76001357 33.95259298 29.20017319 33.78515625 35.765625 C33.77484375 37.07595703 33.76453125 38.38628906 33.75390625 39.73632812 C33.4691248 50.4977809 33.4691248 50.4977809 30.54296875 54.17578125 C25.57246981 58.239201 20.07022392 57.8512347 13.91015625 57.328125 C10.82941777 55.9449363 9.27169955 54.6896683 6.91015625 52.328125 C6.78515625 49.703125 6.78515625 49.703125 6.91015625 47.328125 C9.16015625 46.578125 9.16015625 46.578125 11.91015625 46.328125 C12.52890625 46.9675 13.14765625 47.606875 13.78515625 48.265625 C15.86717629 50.73155747 15.86717629 50.73155747 19.66015625 50.578125 C20.73265625 50.495625 21.80515625 50.413125 22.91015625 50.328125 C23.90015625 48.018125 24.89015625 45.708125 25.91015625 43.328125 C25.34296875 43.48925781 24.77578125 43.65039062 24.19140625 43.81640625 C21.86481446 44.33829585 19.79155125 44.49523634 17.41015625 44.515625 C16.2809375 44.53689453 16.2809375 44.53689453 15.12890625 44.55859375 C12.66151452 44.30229778 11.04659369 43.55657653 8.91015625 42.328125 C8.91015625 41.668125 8.91015625 41.008125 8.91015625 40.328125 C8.25015625 40.328125 7.59015625 40.328125 6.91015625 40.328125 C6.91015625 39.668125 6.91015625 39.008125 6.91015625 38.328125 C6.25015625 38.328125 5.59015625 38.328125 4.91015625 38.328125 C4.95140625 39.276875 4.99265625 40.225625 5.03515625 41.203125 C4.91015625 44.328125 4.91015625 44.328125 2.91015625 46.328125 C0.74609375 46.5234375 0.74609375 46.5234375 -1.71484375 46.453125 C-2.53210938 46.43507812 -3.349375 46.41703125 -4.19140625 46.3984375 C-4.81789062 46.37523437 -5.444375 46.35203125 -6.08984375 46.328125 C-8.23825359 42.03130532 -7.50056372 36.36705259 -7.64746094 31.59179688 C-7.71350233 29.49570054 -7.79175142 27.40031679 -7.87109375 25.3046875 C-8.14681985 17.29578387 -8.30504185 9.27642075 -7.08984375 1.328125 C-5.19856033 -0.56315842 -2.51916649 0.0914398 0 0 Z " fill="#1B1B19" transform="translate(231.08984375,39.671875)"/>
<path d="M0 0 C0.87462891 0.05671875 1.74925781 0.1134375 2.65039062 0.171875 C4.78849869 0.31207881 6.92563113 0.46702967 9.0625 0.625 C9.09136338 5.10415328 9.10925187 9.58328291 9.125 14.0625 C9.13337891 15.34189453 9.14175781 16.62128906 9.15039062 17.93945312 C9.15361328 19.15439453 9.15683594 20.36933594 9.16015625 21.62109375 C9.16539307 22.74700928 9.17062988 23.8729248 9.17602539 25.03295898 C9.0625 27.625 9.0625 27.625 8.0625 28.625 C4.46688181 28.93251719 0.8571521 28.90340593 -2.75 28.9375 C-3.76126953 28.96650391 -4.77253906 28.99550781 -5.81445312 29.02539062 C-13.27570832 29.08949923 -13.27570832 29.08949923 -16.63671875 26.73046875 C-17.9375 24.625 -17.9375 24.625 -17.9375 22.625 C-18.5975 22.625 -19.2575 22.625 -19.9375 22.625 C-22.34169714 17.81660571 -23.67747531 14.95367439 -21.9375 9.625 C-19.91976391 5.18097794 -18.53818119 2.28326225 -13.87890625 0.3671875 C-9.24911662 -0.75621734 -4.7097563 -0.35815637 0 0 Z M-11.9375 9.625 C-12.71561718 13.44484796 -13.18136556 15.89340331 -11.9375 19.625 C-8.92425805 21.13162097 -6.25463623 20.80270373 -2.9375 20.625 C-0.78044485 18.8685669 -0.78044485 18.8685669 -0.671875 16.75 C-0.67703125 16.04875 -0.6821875 15.3475 -0.6875 14.625 C-0.68234375 13.92375 -0.6771875 13.2225 -0.671875 12.5 C-0.78044485 10.3814331 -0.78044485 10.3814331 -2.9375 8.625 C-7.58944714 8.28283765 -7.58944714 8.28283765 -11.9375 9.625 Z " fill="#1B1B19" transform="translate(211.9375,55.375)"/>
<path d="M0 0 C0.99 0 1.98 0 3 0 C4.98 0 6.96 0 9 0 C9 9.24 9 18.48 9 28 C5.638125 28.061875 2.27625 28.12375 -1.1875 28.1875 C-2.76374146 28.22846802 -2.76374146 28.22846802 -4.37182617 28.27026367 C-13.05591226 28.3477035 -13.05591226 28.3477035 -17 25 C-20.77661636 19.79087398 -20.68004499 14.18473348 -20 8 C-18.8170449 4.62857796 -18.07211535 2.77635939 -15.1875 0.6875 C-9.78846751 -1.00933878 -5.56869177 -0.9456269 0 0 Z M-9.9375 9.0625 C-11.59162584 12.07884711 -11.30575763 14.63666608 -11 18 C-8.67471713 20.32528287 -8.15334102 20.29511025 -5 20.3125 C-3.948125 20.33763672 -3.948125 20.33763672 -2.875 20.36328125 C-2.25625 20.24339844 -1.6375 20.12351562 -1 20 C1.31332486 16.53001271 1.33957563 15.07490752 1 11 C0.34 10.01 -0.32 9.02 -1 8 C-4.39471203 7.62966778 -6.88907484 7.39078298 -9.9375 9.0625 Z " fill="#1B1B19" transform="translate(158,56)"/>
<path d="M0 0 C0.94552734 0.16242187 0.94552734 0.16242187 1.91015625 0.328125 C3.93189557 3.36073397 4.20354063 4.41502537 4.47265625 7.890625 C4.72476063 11.23469732 4.72476063 11.23469732 5.91015625 14.328125 C6.54824219 14.31652344 7.18632812 14.30492187 7.84375 14.29296875 C8.67003906 14.28394531 9.49632812 14.27492188 10.34765625 14.265625 C11.17136719 14.25402344 11.99507812 14.24242187 12.84375 14.23046875 C14.91015625 14.328125 14.91015625 14.328125 15.91015625 15.328125 C15.99667236 16.74382623 16.01720529 18.16372 16.0078125 19.58203125 C16.00458984 20.43603516 16.00136719 21.29003906 15.99804688 22.16992188 C15.98966797 23.06775391 15.98128906 23.96558594 15.97265625 24.890625 C15.96814453 25.79232422 15.96363281 26.69402344 15.95898438 27.62304688 C15.9471585 29.85813814 15.93067845 32.09309937 15.91015625 34.328125 C15.25015625 33.998125 14.59015625 33.668125 13.91015625 33.328125 C14.24015625 27.718125 14.57015625 22.108125 14.91015625 16.328125 C12.27015625 16.328125 9.63015625 16.328125 6.91015625 16.328125 C6.95140625 17.606875 6.99265625 18.885625 7.03515625 20.203125 C7.03515625 25.45112712 6.58131585 30.61421811 6.03515625 35.828125 C5.95668457 36.62976074 5.87821289 37.43139648 5.79736328 38.25732422 C5.14941406 44.08886719 5.14941406 44.08886719 2.91015625 46.328125 C0.74609375 46.5234375 0.74609375 46.5234375 -1.71484375 46.453125 C-2.53210938 46.43507812 -3.349375 46.41703125 -4.19140625 46.3984375 C-4.81789062 46.37523437 -5.444375 46.35203125 -6.08984375 46.328125 C-8.23825359 42.03130532 -7.50056372 36.36705259 -7.64746094 31.59179688 C-7.71350233 29.49570054 -7.79175142 27.40031679 -7.87109375 25.3046875 C-8.14681985 17.29578387 -8.30504185 9.27642075 -7.08984375 1.328125 C-5.19856033 -0.56315842 -2.51916649 0.0914398 0 0 Z " fill="#191A17" transform="translate(231.08984375,39.671875)"/>
<path d="M0 0 C2.05531235 3.55008497 1.64583471 6.31247934 1.375 10.375 C-2.02812738 9.31624926 -4.63853231 8.36597846 -7.625 6.375 C-10.14084891 6.13349227 -10.14084891 6.13349227 -12.8125 6.25 C-14.16408203 6.27707031 -14.16408203 6.27707031 -15.54296875 6.3046875 C-16.57357422 6.33949219 -16.57357422 6.33949219 -17.625 6.375 C-17.65205729 8.14574917 -17.67142195 9.91661711 -17.6875 11.6875 C-17.69910156 12.67363281 -17.71070312 13.65976563 -17.72265625 14.67578125 C-17.74829862 17.47463849 -17.74829862 17.47463849 -16.625 20.375 C-12.61284919 20.58092535 -12.61284919 20.58092535 -8.625 20.375 C-7.60480427 19.3956121 -6.60350195 18.39604551 -5.625 17.375 C-1.9375 17.1875 -1.9375 17.1875 1.375 17.375 C1.73975519 21.63047719 1.08040031 24.03833961 -1.625 27.375 C-6.80552914 30.15479612 -12.03823714 29.48110406 -17.625 28.375 C-22.12753211 26.67404343 -24.32307698 23.61658035 -26.671875 19.55078125 C-28.5679231 15.22250752 -28.38595346 11.62952701 -26.890625 7.19921875 C-24.94422209 2.83576634 -23.14265315 0.31113706 -18.625 -1.625 C-17.2946875 -2.2746875 -17.2946875 -2.2746875 -15.9375 -2.9375 C-10.27970251 -4.11175986 -4.91107841 -3.0401914 0 0 Z " fill="#161714" transform="translate(133.625,56.625)"/>
<path d="M0 0 C5.97873264 0.11935764 5.97873264 0.11935764 7.08984375 1.23046875 C7.32685614 4.08924784 7.51203557 6.92930172 7.65234375 9.79296875 C7.69552734 10.59927734 7.73871094 11.40558594 7.78320312 12.23632812 C7.88959637 14.2341568 7.99025263 16.23228945 8.08984375 18.23046875 C8.74984375 18.23046875 9.40984375 18.23046875 10.08984375 18.23046875 C9.59484375 17.24046875 9.59484375 17.24046875 9.08984375 16.23046875 C7.73348772 12.16140065 7.61231004 9.52827213 8.08984375 5.23046875 C10.58984375 2.73046875 10.58984375 2.73046875 13.08984375 1.23046875 C13.74984375 1.56046875 14.40984375 1.89046875 15.08984375 2.23046875 C13.10984375 3.22046875 13.10984375 3.22046875 11.08984375 4.23046875 C11.03537328 5.64670091 10.99683867 7.06355066 10.96484375 8.48046875 C10.94164062 9.269375 10.9184375 10.05828125 10.89453125 10.87109375 C11.1127744 13.50747102 11.58711602 15.05444094 13.08984375 17.23046875 C16.49305309 17.90720322 16.49305309 17.90720322 20.08984375 18.23046875 C22.52734375 19.29296875 22.52734375 19.29296875 24.08984375 20.23046875 C24.08984375 21.55046875 24.08984375 22.87046875 24.08984375 24.23046875 C21.21484375 24.35546875 21.21484375 24.35546875 18.08984375 24.23046875 C17.42984375 23.57046875 16.76984375 22.91046875 16.08984375 22.23046875 C13.76709198 21.82999431 11.43245018 21.49075835 9.08984375 21.23046875 C11.11617444 25.55418768 11.11617444 25.55418768 14.08984375 29.23046875 C20.21629596 30.88997617 24.59923683 30.25590522 30.08984375 27.23046875 C30.74984375 26.57046875 31.40984375 25.91046875 32.08984375 25.23046875 C31.80348534 27.99860001 31.27060264 29.06176045 29.21484375 30.98046875 C24.14979651 33.00648765 18.22117545 33.52556322 13.078125 31.3984375 C10.82352625 29.94086398 9.29824649 28.64727423 8.08984375 26.23046875 C8.00347656 26.95492187 7.91710937 27.679375 7.828125 28.42578125 C6.89037687 34.87817666 5.97573115 38.7990825 1.08984375 43.23046875 C-3.18890472 45.84525948 -8.03339765 45.79813377 -12.91015625 45.23046875 C-17.78548828 43.33450629 -20.81978305 41.41121515 -23.16015625 36.73046875 C-23.91015625 34.23046875 -23.91015625 34.23046875 -22.91015625 31.23046875 C-22.25015625 30.90046875 -21.59015625 30.57046875 -20.91015625 30.23046875 C-21.24015625 28.25046875 -21.57015625 26.27046875 -21.91015625 24.23046875 C-21.58015625 24.89046875 -21.25015625 25.55046875 -20.91015625 26.23046875 C-20.25015625 26.23046875 -19.59015625 26.23046875 -18.91015625 26.23046875 C-18.58015625 26.89046875 -18.25015625 27.55046875 -17.91015625 28.23046875 C-14.48782653 29.37124532 -11.82342408 29.32861992 -8.22265625 29.29296875 C-7.04316406 29.28394531 -5.86367187 29.27492188 -4.6484375 29.265625 C-3.74480469 29.25402344 -2.84117187 29.24242188 -1.91015625 29.23046875 C-2.66015625 34.98046875 -2.66015625 34.98046875 -4.91015625 37.23046875 C-8.28515625 37.60546875 -8.28515625 37.60546875 -11.91015625 37.23046875 C-14.09765625 35.23046875 -14.09765625 35.23046875 -15.91015625 33.23046875 C-17.23015625 33.23046875 -18.55015625 33.23046875 -19.91015625 33.23046875 C-20.24068611 36.86064554 -20.24068611 36.86064554 -18.59765625 39.98046875 C-14.10853548 43.3057434 -8.22203907 42.67377376 -2.91015625 42.23046875 C0.8301456 40.62748224 1.8214284 39.63309177 4.08984375 36.23046875 C4.3297803 33.69460027 4.46237594 31.25830844 4.50390625 28.71875 C4.5232724 27.99052536 4.54263855 27.26230072 4.56259155 26.51200867 C4.62230751 24.189114 4.66873992 21.86616956 4.71484375 19.54296875 C4.75303096 17.96677543 4.79208313 16.3906028 4.83203125 14.81445312 C4.92800223 10.9532934 5.01206224 7.09203599 5.08984375 3.23046875 C2.77984375 2.90046875 0.46984375 2.57046875 -1.91015625 2.23046875 C-1.90230103 3.12354736 -1.90230103 3.12354736 -1.89428711 4.03466797 C-1.87353626 6.72492422 -1.86050218 9.41516364 -1.84765625 12.10546875 C-1.83927734 13.04261719 -1.83089844 13.97976562 -1.82226562 14.9453125 C-1.81743164 16.28916016 -1.81743164 16.28916016 -1.8125 17.66015625 C-1.80464478 18.90128174 -1.80464478 18.90128174 -1.79663086 20.16748047 C-1.91015625 22.23046875 -1.91015625 22.23046875 -2.91015625 24.23046875 C-6.28515625 25.04296875 -6.28515625 25.04296875 -9.91015625 25.23046875 C-11.84765625 23.79296875 -11.84765625 23.79296875 -12.91015625 22.23046875 C-10.2013629 20.87607207 -7.90082357 21.16545424 -4.91015625 21.23046875 C-4.89033691 20.66537598 -4.87051758 20.1002832 -4.85009766 19.51806641 C-4.75497389 16.96338878 -4.64524567 14.40954334 -4.53515625 11.85546875 C-4.50421875 10.96601562 -4.47328125 10.0765625 -4.44140625 9.16015625 C-4.40273437 8.309375 -4.3640625 7.45859375 -4.32421875 6.58203125 C-4.29279785 5.79650879 -4.26137695 5.01098633 -4.22900391 4.20166016 C-3.78134192 1.4341082 -2.81413979 0.33953834 0 0 Z M-10.91015625 32.23046875 C-10.91015625 33.22046875 -10.91015625 34.21046875 -10.91015625 35.23046875 C-8.93015625 35.23046875 -6.95015625 35.23046875 -4.91015625 35.23046875 C-5.24015625 34.24046875 -5.57015625 33.25046875 -5.91015625 32.23046875 C-7.56015625 32.23046875 -9.21015625 32.23046875 -10.91015625 32.23046875 Z " fill="#040904" transform="translate(258.91015625,53.76953125)"/>
<path d="M0 0 C2.81585118 0.68564406 4.452207 1.4607084 7 3 C7.9375 5.6875 7.9375 5.6875 8 8 C5.6875 8.625 5.6875 8.625 3 9 C2.01 8.34 1.02 7.68 0 7 C-3.12521833 6.83300768 -3.12521833 6.83300768 -6 7 C-6 7.99 -6 8.98 -6 10 C-5.22914063 10.27714844 -4.45828125 10.55429688 -3.6640625 10.83984375 C-2.66117187 11.20207031 -1.65828125 11.56429687 -0.625 11.9375 C0.37273437 12.29714844 1.37046875 12.65679687 2.3984375 13.02734375 C5 14 5 14 7 15 C7 15.66 7 16.32 7 17 C7.66 17 8.32 17 9 17 C9 18.98 9 20.96 9 23 C8.34 23 7.68 23 7 23 C6.92007812 23.62261719 6.84015625 24.24523437 6.7578125 24.88671875 C6 27 6 27 4.1796875 28.08203125 C-0.88859448 29.68841893 -4.73537209 30.54841997 -10 29 C-12.85448107 26.89669816 -13.81602546 25.67457332 -14.75 22.25 C-14.8325 21.5075 -14.915 20.765 -15 20 C-11.625 19.875 -11.625 19.875 -8 20 C-7.34 20.66 -6.68 21.32 -6 22 C-4.01178687 22.39764263 -2.01055661 22.73775349 0 23 C0 21.68 0 20.36 0 19 C-3.63 18.34 -7.26 17.68 -11 17 C-11.33 15.68 -11.66 14.36 -12 13 C-12.66 12.67 -13.32 12.34 -14 12 C-14.41271158 7.79034186 -14.42484735 5.64412341 -12.0625 2.0625 C-7.90099602 -0.74014554 -4.87377606 -0.75684918 0 0 Z " fill="#1A1A18" transform="translate(283,55)"/>
<path d="M0 0 C3 2 3 2 3.75 4.5 C4 7 4 7 3 9 C0.625 9.125 0.625 9.125 -2 9 C-2.66 8.34 -3.32 7.68 -4 7 C-5.98821313 6.60235737 -7.98944339 6.26224651 -10 6 C-7.339041 9.99143851 -4.62473573 10.4190293 -0.21484375 11.9375 C0.51605469 12.288125 1.24695313 12.63875 2 13 C2.33 13.99 2.66 14.98 3 16 C3.66 16 4.32 16 5 16 C5.52455373 20.45870674 5.51258735 22.34887552 2.6875 25.9375 C-1.73160014 29.1255651 -6.80845304 28.71117082 -12 28 C-15.125 26.875 -15.125 26.875 -17 25 C-17.8125 21.8125 -17.8125 21.8125 -18 19 C-13.47169811 18.62264151 -13.47169811 18.62264151 -11.125 20.5 C-8.09967752 22.63552175 -5.60614422 22.20804678 -2 22 C-2 20.35 -2 18.7 -2 17 C-2.825 17.061875 -3.65 17.12375 -4.5 17.1875 C-8.88193696 16.95275338 -11.95495082 15.67381346 -16 14 C-16 13.34 -16 12.68 -16 12 C-16.66 11.67 -17.32 11.34 -18 11 C-18.43440896 7.26408298 -18.23528279 5.40085216 -16.3125 2.125 C-11.21905303 -1.14249428 -5.90155627 -0.73964096 0 0 Z " fill="#1B1A19" transform="translate(324,56)"/>
<path d="M0 0 C2.64 0 5.28 0 8 0 C8 2.64 8 5.28 8 8 C9.98 8 11.96 8 14 8 C15.33332095 10.6666419 14.67102033 12.16680303 14 15 C12.02 15 10.04 15 8 15 C8.33 19.62 8.66 24.24 9 29 C10.65 29 12.3 29 14 29 C14.33 31.31 14.66 33.62 15 36 C5.98923284 36.78734859 5.98923284 36.78734859 1.9375 33.5625 C1.298125 32.716875 0.65875 31.87125 0 31 C-0.33 30.67 -0.66 30.34 -1 30 C-1.07313567 27.46950598 -1.09247527 24.96695163 -1.0625 22.4375 C-1.05798828 21.72658203 -1.05347656 21.01566406 -1.04882812 20.28320312 C-1.03700864 18.52209987 -1.01907263 16.76103964 -1 15 C-2.32 15 -3.64 15 -5 15 C-5 12.69 -5 10.38 -5 8 C-3.68 7.67 -2.36 7.34 -1 7 C-0.67 4.69 -0.34 2.38 0 0 Z " fill="#1A1A18" transform="translate(175,48)"/>
<path d="M0 0 C1.9375 2.25 1.9375 2.25 2.375 5.3125 C1.9375 8.25 1.9375 8.25 -0.0625 11.25 C0.453125 11.930625 0.96875 12.61125 1.5 13.3125 C3.39804428 17.19111222 3.11555879 19.12679425 1.9375 23.25 C-1.0720489 26.89313814 -3.29677404 28.97606143 -8.11328125 29.453125 C-13.22520813 29.55907167 -16.61992601 29.06724204 -21.0625 26.25 C-24.48929211 22.82320789 -23.43159685 18.02077613 -23.4375 13.375 C-23.46199219 12.36824219 -23.48648437 11.36148438 -23.51171875 10.32421875 C-23.54115915 2.93467733 -23.54115915 2.93467733 -21.23828125 -0.359375 C-13.99628298 -4.98801304 -7.16886733 -4.09649562 0 0 Z M-20.375 1.3125 C-22.42465922 4.88042531 -22.45973422 7.19821095 -22.0625 11.25 C-21.4025 11.25 -20.7425 11.25 -20.0625 11.25 C-20.0625 11.91 -20.0625 12.57 -20.0625 13.25 C-15.13265675 15.28993514 -11.48289575 16.65652968 -6.0625 16.25 C-6.0625 17.9 -6.0625 19.55 -6.0625 21.25 C-11.03701719 21.53699138 -13.21666301 21.3266696 -17.0625 18.25 C-19.73011764 17.99875174 -19.73011764 17.99875174 -22.0625 18.25 C-21.83313276 21.69050866 -21.67088078 23.64161922 -19.1875 26.125 C-13.99158314 27.99553007 -8.20557082 28.59960102 -3.015625 26.37109375 C-1.07824382 25.08787698 -1.07824382 25.08787698 0.9375 22.25 C1.43946294 18.53926495 1.43946294 18.53926495 0.9375 15.25 C0.2775 15.25 -0.3825 15.25 -1.0625 15.25 C-1.28808594 14.63382813 -1.51367188 14.01765625 -1.74609375 13.3828125 C-3.48343172 10.56801567 -5.03275775 10.18392612 -8.125 9.125 C-12.96527778 7.44444444 -12.96527778 7.44444444 -14.0625 5.25 C-7.1875 7.125 -7.1875 7.125 -6.0625 8.25 C-4.39632885 8.29063832 -2.72861905 8.292721 -1.0625 8.25 C-0.16575223 5.73910624 0.06922674 4.60464891 -0.875 2.0625 C-1.94371987 0.09977807 -1.94371987 0.09977807 -4.0625 -0.75 C-12.60211386 -1.5993934 -12.60211386 -1.5993934 -20.375 1.3125 Z " fill="#040803" transform="translate(328.0625,56.75)"/>
<path d="M0 0 C0.90194092 0.00193359 1.80388184 0.00386719 2.7331543 0.00585938 C11.17782112 0.05928315 19.57982753 0.50700569 28 1.125 C27.835 2.424375 27.67 3.72375 27.5 5.0625 C26.85875715 11.06000664 26.3902055 16.59200746 27.8125 22.5 C31.26022009 26.6372641 35.86142766 27.13043761 41 28.125 C41 28.455 41 28.785 41 29.125 C39.22844346 29.01070603 37.45773771 28.88316963 35.6875 28.75 C34.70136719 28.68039063 33.71523437 28.61078125 32.69921875 28.5390625 C30 28.125 30 28.125 27 26.125 C22.74905751 19.19001533 24.0255472 10.81234989 25 3.125 C21.37 3.125 17.74 3.125 14 3.125 C14 7.745 14 12.365 14 17.125 C14.66 17.125 15.32 17.125 16 17.125 C16 18.775 16 20.425 16 22.125 C14.125 21.5625 14.125 21.5625 12 20.125 C9.48001236 14.20302904 9.84272261 8.49473436 10 2.125 C4.06 2.62 4.06 2.62 -2 3.125 C-0.768044 12.87054742 -0.768044 12.87054742 4 21.125 C4 21.785 4 22.445 4 23.125 C3.01 23.125 2.02 23.125 1 23.125 C-2.24043814 16.5080748 -4.69039355 10.38736302 -6 3.125 C-9.63 3.125 -13.26 3.125 -17 3.125 C-16.67 7.415 -16.34 11.705 -16 16.125 C-18 15.125 -18 15.125 -18.62109375 13.390625 C-19.04706889 10.84355716 -19.09646629 8.45643831 -19.0625 5.875 C-19.05347656 4.98296875 -19.04445313 4.0909375 -19.03515625 3.171875 C-19.02355469 2.49640625 -19.01195313 1.8209375 -19 1.125 C-12.62652107 0.31546538 -6.42149035 -0.03373707 0 0 Z " fill="#030702" transform="translate(41,35.875)"/>
<path d="M0 0 C0.94552734 0.16242187 0.94552734 0.16242187 1.91015625 0.328125 C3.93189557 3.36073397 4.20354063 4.41502537 4.47265625 7.890625 C4.72476063 11.23469732 4.72476063 11.23469732 5.91015625 14.328125 C6.54824219 14.31652344 7.18632812 14.30492187 7.84375 14.29296875 C8.67003906 14.28394531 9.49632812 14.27492188 10.34765625 14.265625 C11.17136719 14.25402344 11.99507812 14.24242187 12.84375 14.23046875 C14.91015625 14.328125 14.91015625 14.328125 15.91015625 15.328125 C15.99667236 16.74382623 16.01720529 18.16372 16.0078125 19.58203125 C16.00458984 20.43603516 16.00136719 21.29003906 15.99804688 22.16992188 C15.98966797 23.06775391 15.98128906 23.96558594 15.97265625 24.890625 C15.96814453 25.79232422 15.96363281 26.69402344 15.95898438 27.62304688 C15.9471585 29.85813814 15.93067845 32.09309937 15.91015625 34.328125 C15.25015625 33.998125 14.59015625 33.668125 13.91015625 33.328125 C14.24015625 27.718125 14.57015625 22.108125 14.91015625 16.328125 C12.27015625 16.328125 9.63015625 16.328125 6.91015625 16.328125 C6.95140625 17.606875 6.99265625 18.885625 7.03515625 20.203125 C7.02760308 25.44502352 6.61459225 30.61629126 6.09765625 35.828125 C6.02756348 36.62976074 5.9574707 37.43139648 5.88525391 38.25732422 C5.66750877 40.2952622 5.29890224 42.31579284 4.91015625 44.328125 C3.92015625 44.988125 2.93015625 45.648125 1.91015625 46.328125 C2.0803125 45.19246094 2.25046875 44.05679688 2.42578125 42.88671875 C3.16957403 36.1543391 2.92157852 29.41622204 2.72314453 22.65991211 C2.65963019 20.37167254 2.61865111 18.08367029 2.578125 15.79492188 C2.53913336 14.33850426 2.49881757 12.88212136 2.45703125 11.42578125 C2.40820801 9.45363647 2.40820801 9.45363647 2.35839844 7.44165039 C2.21047852 6.41418701 2.06255859 5.38672363 1.91015625 4.328125 C-1.04361873 1.95832487 -1.04361873 1.95832487 -5.08984375 2.328125 C-5.08984375 16.518125 -5.08984375 30.708125 -5.08984375 45.328125 C-3.10984375 45.328125 -1.12984375 45.328125 0.91015625 45.328125 C0.91015625 45.658125 0.91015625 45.988125 0.91015625 46.328125 C-1.39984375 46.328125 -3.70984375 46.328125 -6.08984375 46.328125 C-8.23825359 42.03130532 -7.50056372 36.36705259 -7.64746094 31.59179688 C-7.71350233 29.49570054 -7.79175142 27.40031679 -7.87109375 25.3046875 C-8.14681985 17.29578387 -8.30504185 9.27642075 -7.08984375 1.328125 C-5.19856033 -0.56315842 -2.51916649 0.0914398 0 0 Z " fill="#020701" transform="translate(231.08984375,39.671875)"/>
<path d="M0 0 C0.04241723 2.33294775 0.04092937 4.66702567 0 7 C-2.24805389 9.24805389 -8.36742288 8.35416344 -11.56640625 8.4296875 C-16.15980899 8.62008761 -19.25169147 9.06466434 -23 12 C-26.28821771 17.32378105 -25.314549 24.01834128 -24.375 29.9375 C-24.25125 30.948125 -24.1275 31.95875 -24 33 C-26 35 -26 35 -28.49609375 35.23046875 C-29.46675781 35.21628906 -30.43742187 35.20210937 -31.4375 35.1875 C-32.40558594 35.18105469 -33.37367187 35.17460938 -34.37109375 35.16796875 C-37 35 -37 35 -40 34 C-40.495 34.495 -40.495 34.495 -41 35 C-43.01964199 35.07244053 -45.04167124 35.08377188 -47.0625 35.0625 C-48.16722656 35.05347656 -49.27195313 35.04445312 -50.41015625 35.03515625 C-51.69212891 35.01775391 -51.69212891 35.01775391 -53 35 C-53 34.67 -53 34.34 -53 34 C-49.37 34 -45.74 34 -42 34 C-42.03480469 33.21496094 -42.06960937 32.42992187 -42.10546875 31.62109375 C-42.26917685 25.26766049 -42.21070449 20.55698855 -39 15 C-38.34 14.67 -37.68 14.34 -37 14 C-36.875 20.75 -36.875 20.75 -38 23 C-38.06950541 24.54023996 -38.08452357 26.08334988 -38.0625 27.625 C-38.041875 29.06875 -38.02125 30.5125 -38 32 C-34.37 32.33 -30.74 32.66 -27 33 C-27.10699219 32.09378906 -27.21398437 31.18757813 -27.32421875 30.25390625 C-28.77447527 15.51742869 -28.77447527 15.51742869 -25 10 C-20.08116598 5.73251843 -16.31308981 5.47730452 -10.125 5.75 C-8.949375 5.77707031 -8.949375 5.77707031 -7.75 5.8046875 C-5.83279811 5.85144852 -3.91623285 5.92317997 -2 6 C-1.67 4.35 -1.34 2.7 -1 1 C-4.3 1 -7.6 1 -11 1 C-11 0.67 -11 0.34 -11 0 C-3.57142857 -1.28571429 -3.57142857 -1.28571429 0 0 Z " fill="#020702" transform="translate(93,65)"/>
<path d="M0 0 C0.02891949 4.29165262 0.04677118 8.58328036 0.0625 12.875 C0.07087891 14.09832031 0.07925781 15.32164063 0.08789062 16.58203125 C0.09111328 17.74863281 0.09433594 18.91523437 0.09765625 20.1171875 C0.10289307 21.19597168 0.10812988 22.27475586 0.11352539 23.38623047 C0 26 0 26 -1 28 C-2.9375 28.6875 -2.9375 28.6875 -5 29 C-5.66 28.67 -6.32 28.34 -7 28 C-6.99214478 27.03960815 -6.99214478 27.03960815 -6.98413086 26.05981445 C-6.96327571 23.14405305 -6.95031271 20.22830738 -6.9375 17.3125 C-6.92912109 16.30509766 -6.92074219 15.29769531 -6.91210938 14.25976562 C-6.90888672 13.28330078 -6.90566406 12.30683594 -6.90234375 11.30078125 C-6.89710693 10.40528564 -6.89187012 9.50979004 -6.88647461 8.5871582 C-7.00159802 5.96358241 -7.41765715 3.55706947 -8 1 C-2.25 -1.125 -2.25 -1.125 0 0 Z " fill="#1C1B1A" transform="translate(302,56)"/>
<path d="M0 0 C2.9375 1.9375 2.9375 1.9375 4.4375 4.8125 C4.9375 7.9375 4.9375 7.9375 3.96289062 10.26928711 C2.77285769 13.3659228 2.81568661 15.45669341 3.03125 18.75390625 C3.09183594 19.84767578 3.15242188 20.94144531 3.21484375 22.06835938 C3.28832031 23.20080078 3.36179687 24.33324219 3.4375 25.5 C3.58303401 27.7506707 3.71886527 30.00199538 3.84375 32.25390625 C3.90884766 33.24849854 3.97394531 34.24309082 4.04101562 35.26782227 C3.9375 37.9375 3.9375 37.9375 1.9375 41.9375 C1.6075 33.0275 1.2775 24.1175 0.9375 14.9375 C-1.7025 14.6075 -4.3425 14.2775 -7.0625 13.9375 C-9.10912511 11.63504675 -9.05631881 9.99683946 -9.375 6.9375 C-9.02595057 3.58662547 -8.42243136 2.29743136 -6.0625 -0.0625 C-3.0625 -1.0625 -3.0625 -1.0625 0 0 Z " fill="#010600" transform="translate(301.0625,41.0625)"/>
<path d="M0 0 C2.02045442 0.60183749 4.02111039 1.27306096 6 2 C6.33 2.66 6.66 3.32 7 4 C7.99 4.33 8.98 4.66 10 5 C10 5.66 10 6.32 10 7 C9.443125 7.18433594 8.88625 7.36867188 8.3125 7.55859375 C0.84584185 10.39642835 -3.96146253 15.14636259 -8.18359375 21.890625 C-9.26561005 24.68626519 -9.43029219 27.26448025 -9.625 30.25 C-9.69976563 31.32765625 -9.77453125 32.4053125 -9.8515625 33.515625 C-9.90054687 34.33546875 -9.94953125 35.1553125 -10 36 C-4.555 35.505 -4.555 35.505 1 35 C1.268125 33.329375 1.53625 31.65875 1.8125 29.9375 C2.8100561 24.40818905 4.49535424 20.00929153 7 15 C7.99 15 8.98 15 10 15 C10 16.32 10 17.64 10 19 C9.34 19 8.68 19 8 19 C7.16900682 22.18799201 6.49422505 25.3893311 5.875 28.625 C5.68679687 29.58664063 5.49859375 30.54828125 5.3046875 31.5390625 C4.76938058 34.00019814 4.76938058 34.00019814 6 36 C2.44743456 37.08501999 -0.92206719 37.19984741 -4.625 37.25 C-5.77226562 37.27578125 -6.91953125 37.3015625 -8.1015625 37.328125 C-9.05804687 37.21984375 -10.01453125 37.1115625 -11 37 C-13.84724274 32.7291359 -12.81155282 29.95956267 -11.88671875 25.0703125 C-10.55245985 20.45036757 -8.26393041 17.45636168 -5 14 C-4.37996094 13.32582031 -3.75992187 12.65164062 -3.12109375 11.95703125 C0.19487691 8.48876131 0.19487691 8.48876131 2 7 C2.66 7 3.32 7 4 7 C3.525625 6.21625 3.05125 5.4325 2.5625 4.625 C1.66101977 3.11051322 0.78820515 1.5764103 0 0 Z " fill="#030702" transform="translate(34,63)"/>
<path d="M0 0 C2.31 0 4.62 0 7 0 C7.25 2.25 7.25 2.25 7 5 C4.7522146 7.79035429 3.42269984 8.85910005 0 10 C-1.72795352 10.06802967 -3.45835365 10.08495645 -5.1875 10.0625 C-6.08855469 10.05347656 -6.98960938 10.04445313 -7.91796875 10.03515625 C-8.60503906 10.02355469 -9.29210937 10.01195313 -10 10 C-10.66 8.68 -11.32 7.36 -12 6 C-11.21753906 5.73445313 -10.43507813 5.46890625 -9.62890625 5.1953125 C-8.61699219 4.84210938 -7.60507813 4.48890625 -6.5625 4.125 C-5.55316406 3.77695313 -4.54382813 3.42890625 -3.50390625 3.0703125 C-0.86028249 2.25944907 -0.86028249 2.25944907 0 0 Z " fill="#1C1B1A" transform="translate(128,74)"/>
<path d="M0 0 C0.78375 0.04125 1.5675 0.0825 2.375 0.125 C2.375 0.785 2.375 1.445 2.375 2.125 C3.365 2.455 4.355 2.785 5.375 3.125 C5.73575949 7.57436709 5.73575949 7.57436709 4.1875 9.9375 C1.72592224 11.55025784 0.26434264 11.5584014 -2.625 11.125 C-4.5 10 -4.5 10 -5.625 8.125 C-5.35216942 3.66876725 -5.09085232 0.24242154 0 0 Z " fill="#181A16" transform="translate(298.625,41.875)"/>
<path d="M0 0 C0 0.66 0 1.32 0 2 C0.66 2 1.32 2 2 2 C2.08114106 3.77007714 2.13925505 5.54122098 2.1875 7.3125 C2.22230469 8.29863281 2.25710937 9.28476563 2.29296875 10.30078125 C2 13 2 13 0.73828125 14.83203125 C-2.32349521 16.88926982 -5.45665991 16.52521325 -9 16 C-10.9375 14.9375 -10.9375 14.9375 -12 13 C-12.8626701 9.41660111 -13.17679729 6.7955878 -12.375 3.1875 C-11 1 -11 1 -8.75 -0.375 C-5.52068762 -1.10893463 -3.20293481 -0.74486856 0 0 Z M-10 3 C-10.77811718 6.81984796 -11.24386556 9.26840331 -10 13 C-6.98675805 14.50662097 -4.31713623 14.17770373 -1 14 C1.15705515 12.2435669 1.15705515 12.2435669 1.265625 10.125 C1.26046875 9.42375 1.2553125 8.7225 1.25 8 C1.25515625 7.29875 1.2603125 6.5975 1.265625 5.875 C1.15705515 3.7564331 1.15705515 3.7564331 -1 2 C-5.65194714 1.65783765 -5.65194714 1.65783765 -10 3 Z " fill="#050B04" transform="translate(210,62)"/>
<path d="M0 0 C0.33 0 0.66 0 1 0 C1 20 1 20 0.25 21.9375 C0.1675 22.618125 0.085 23.29875 0 24 C1.85432087 26.27144074 1.85432087 26.27144074 4 28 C1.36 27.67 -1.28 27.34 -4 27 C-4.33 26.01 -4.66 25.02 -5 24 C-5.66 24 -6.32 24 -7 24 C-7.33 21.69 -7.66 19.38 -8 17 C-7.01 18.32 -6.02 19.64 -5 21 C-4.01 20.34 -3.02 19.68 -2 19 C-2 18.01 -2 17.02 -2 16 C-1.34 16 -0.68 16 0 16 C0 10.72 0 5.44 0 0 Z " fill="#141713" transform="translate(245,56)"/>
<path d="M0 0 C3.9909375 0.556875 3.9909375 0.556875 8.0625 1.125 C8.0625 10.365 8.0625 19.605 8.0625 29.125 C7.7325 29.125 7.4025 29.125 7.0625 29.125 C7.0625 20.215 7.0625 11.305 7.0625 2.125 C4.4225 2.785 1.7825 3.445 -0.9375 4.125 C-1.845 3.795 -2.7525 3.465 -3.6875 3.125 C-8.8654775 1.53177616 -13.72371039 3.02824814 -18.9375 4.125 C-14.22799599 -1.96965224 -6.76109442 -1.00639469 0 0 Z " fill="#090E08" transform="translate(159.9375,53.875)"/>
<path d="M0 0 C1.21236328 0.02707031 1.21236328 0.02707031 2.44921875 0.0546875 C3.37154297 0.08949219 3.37154297 0.08949219 4.3125 0.125 C6.02004834 3.09965763 6.58567355 5.26360832 6.5625 8.6875 C6.56765625 9.45191406 6.5728125 10.21632813 6.578125 11.00390625 C6.3125 13.125 6.3125 13.125 4.3125 16.125 C2.68669034 16.01101335 1.06182843 15.88344341 -0.5625 15.75 C-1.46742188 15.68039063 -2.37234375 15.61078125 -3.3046875 15.5390625 C-5.6875 15.125 -5.6875 15.125 -7.6875 13.125 C-7.98828125 10.59375 -7.98828125 10.59375 -8 7.625 C-8.01675781 6.6453125 -8.03351563 5.665625 -8.05078125 4.65625 C-7.93089844 3.8209375 -7.81101563 2.985625 -7.6875 2.125 C-4.48369983 -0.01086678 -3.66810033 -0.10632175 0 0 Z M-5.625 3.1875 C-7.27912584 6.20384711 -6.99325763 8.76166608 -6.6875 12.125 C-4.36221713 14.45028287 -3.84084102 14.42011025 -0.6875 14.4375 C0.364375 14.46263672 0.364375 14.46263672 1.4375 14.48828125 C2.05625 14.36839844 2.675 14.24851562 3.3125 14.125 C5.62582486 10.65501271 5.65207563 9.19990752 5.3125 5.125 C4.6525 4.135 3.9925 3.145 3.3125 2.125 C-0.08221203 1.75466778 -2.57657484 1.51578298 -5.625 3.1875 Z " fill="#030703" transform="translate(153.6875,61.875)"/>
<path d="M0 0 C0 3 0 3 -1 6 C-1.22179785 7.89212737 -1.40614015 9.78884472 -1.5625 11.6875 C-1.64628906 12.68136719 -1.73007813 13.67523438 -1.81640625 14.69921875 C-1.87699219 15.45847656 -1.93757812 16.21773437 -2 17 C-2.33 17 -2.66 17 -3 17 C-3 14.69 -3 12.38 -3 10 C-5.01822917 9.83723958 -7.03645833 9.67447917 -9.0546875 9.51171875 C-11 9 -11 9 -13 6 C-10.69 6.66 -8.38 7.32 -6 8 C-5.67 6.02 -5.34 4.04 -5 2 C-4.360625 1.855625 -3.72125 1.71125 -3.0625 1.5625 C-1.02454854 1.18992819 -1.02454854 1.18992819 0 0 Z " fill="#0C0C0A" transform="translate(140,58)"/>
<path d="M0 0 C3.375 -0.1875 3.375 -0.1875 7 0 C7.66 0.99 8.32 1.98 9 3 C10.95385067 3.78988145 10.95385067 3.78988145 13.125 4.1875 C15.043125 4.5896875 15.043125 4.5896875 17 5 C17 7.31 17 9.62 17 12 C16.67 11.34 16.34 10.68 16 10 C13.36 10 10.72 10 8 10 C10 8 10 8 13 7 C11.576875 6.319375 11.576875 6.319375 10.125 5.625 C7 4 7 4 5 2 C2.42938689 1.35232207 2.42938689 1.35232207 0 1 C0 0.67 0 0.34 0 0 Z " fill="#010300" transform="translate(120,63)"/>
<path d="M0 0 C1.44229319 2.88458638 0.64450122 4.90639415 0 8 C-0.33 8.66 -0.66 9.32 -1 10 C-0.34 10.33 0.32 10.66 1 11 C0.67 13.31 0.34 15.62 0 18 C-2.65085745 15.34914255 -3.00614082 13.9365449 -3.375 10.125 C-3.24248854 6.19382672 -2.03185332 3.3864222 0 0 Z " fill="#090C07" transform="translate(109,60)"/>
<path d="M0 0 C5.67276511 -0.29341888 8.99067246 -0.00559652 14 3 C14 3.33 14 3.66 14 4 C11.625 4.125 11.625 4.125 9 4 C8.34 3.34 7.68 2.68 7 2 C5.01178687 1.60235737 3.01055661 1.26224651 1 1 C0.67 1.66 0.34 2.32 0 3 C0 2.01 0 1.02 0 0 Z " fill="#11100F" transform="translate(313,61)"/>
<path d="M0 0 C0.99 0 1.98 0 3 0 C3 1.32 3 2.64 3 4 C2.34 4 1.68 4 1 4 C0.67 4.99 0.34 5.98 0 7 C-0.99 7 -1.98 7 -3 7 C-1.125 2.25 -1.125 2.25 0 0 Z " fill="#0C0D0B" transform="translate(41,78)"/>
<path d="M0 0 C0 0.99 0 1.98 0 3 C0.99 3.33 1.98 3.66 3 4 C3 4.66 3 5.32 3 6 C0.625 5.75 0.625 5.75 -2 5 C-3.3125 2.9375 -3.3125 2.9375 -4 1 C-2 0 -2 0 0 0 Z " fill="#201B1F" transform="translate(300,44)"/>
<path d="M0 0 C4.455 0.99 4.455 0.99 9 2 C9 2.33 9 2.66 9 3 C7.329375 3.433125 7.329375 3.433125 5.625 3.875 C1.99708908 4.69241329 1.99708908 4.69241329 0 7 C0 4.66666667 0 2.33333333 0 0 Z " fill="#131612" transform="translate(146,75)"/>
<path d="M0 0 C0.33 0 0.66 0 1 0 C1 2.31 1 4.62 1 7 C0.67 6.34 0.34 5.68 0 5 C-0.66 5 -1.32 5 -2 5 C-2.33 5.99 -2.66 6.98 -3 8 C-2.25 2.25 -2.25 2.25 0 0 Z " fill="#0D0D0B" transform="translate(55,79)"/>
<path d="M0 0 C2 1 2 1 3.125 4.0625 C3.41375 5.031875 3.7025 6.00125 4 7 C3.01 7 2.02 7 1 7 C-0.0625 4.625 -0.0625 4.625 -1 2 C-0.67 1.34 -0.34 0.68 0 0 Z " fill="#0C0808" transform="translate(41,52)"/>
<path d="" fill="#000000" transform="translate(0,0)"/>
<path d="" fill="#000000" transform="translate(0,0)"/>
<path d="" fill="#000000" transform="translate(0,0)"/>
<path d="" fill="#000000" transform="translate(0,0)"/>
<path d="" fill="#000000" transform="translate(0,0)"/>
<path d="" fill="#000000" transform="translate(0,0)"/>
<path d="" fill="#000000" transform="translate(0,0)"/>
<path d="" fill="#000000" transform="translate(0,0)"/>
<path d="" fill="#000000" transform="translate(0,0)"/>
<path d="" fill="#000000" transform="translate(0,0)"/>
<path d="" fill="#000000" transform="translate(0,0)"/>
<path d="" fill="#000000" transform="translate(0,0)"/>
<path d="" fill="#000000" transform="translate(0,0)"/>
<path d="" fill="#000000" transform="translate(0,0)"/>
<path d="" fill="#000000" transform="translate(0,0)"/>
<path d="" fill="#000000" transform="translate(0,0)"/>
<path d="" fill="#000000" transform="translate(0,0)"/>
<path d="" fill="#000000" transform="translate(0,0)"/>
<path d="" fill="#000000" transform="translate(0,0)"/>
<path d="" fill="#000000" transform="translate(0,0)"/>
<path d="" fill="#000000" transform="translate(0,0)"/>
<path d="" fill="#000000" transform="translate(0,0)"/>
<path d="" fill="#000000" transform="translate(0,0)"/>
<path d="" fill="#000000" transform="translate(0,0)"/>
<path d="" fill="#000000" transform="translate(0,0)"/>
<path d="" fill="#000000" transform="translate(0,0)"/>
<path d="" fill="#000000" transform="translate(0,0)"/>
<path d="" fill="#000000" transform="translate(0,0)"/>
<path d="" fill="#000000" transform="translate(0,0)"/>
<path d="" fill="#000000" transform="translate(0,0)"/>
<path d="" fill="#000000" transform="translate(0,0)"/>
<path d="" fill="#000000" transform="translate(0,0)"/>
<path d="" fill="#000000" transform="translate(0,0)"/>
<path d="" fill="#000000" transform="translate(0,0)"/>
<path d="" fill="#000000" transform="translate(0,0)"/>
<path d="" fill="#000000" transform="translate(0,0)"/>
<path d="" fill="#000000" transform="translate(0,0)"/>
<path d="" fill="#000000" transform="translate(0,0)"/>
<path d="" fill="#000000" transform="translate(0,0)"/>
<path d="" fill="#000000" transform="translate(0,0)"/>
<path d="" fill="#000000" transform="translate(0,0)"/>
<path d="" fill="#000000" transform="translate(0,0)"/>
<path d="" fill="#000000" transform="translate(0,0)"/>
<path d="" fill="#000000" transform="translate(0,0)"/>
<path d="" fill="#000000" transform="translate(0,0)"/>
<path d="" fill="#000000" transform="translate(0,0)"/>
<path d="" fill="#000000" transform="translate(0,0)"/>
<path d="" fill="#000000" transform="translate(0,0)"/>
<path d="" fill="#000000" transform="translate(0,0)"/>
<path d="" fill="#000000" transform="translate(0,0)"/>
<path d="" fill="#000000" transform="translate(0,0)"/>
<path d="" fill="#000000" transform="translate(0,0)"/>
<path d="" fill="#000000" transform="translate(0,0)"/>
<path d="" fill="#000000" transform="translate(0,0)"/>
<path d="" fill="#000000" transform="translate(0,0)"/>
<path d="" fill="#000000" transform="translate(0,0)"/>
<path d="" fill="#000000" transform="translate(0,0)"/>
<path d="" fill="#000000" transform="translate(0,0)"/>
<path d="" fill="#000000" transform="translate(0,0)"/>
<path d="" fill="#000000" transform="translate(0,0)"/>
<path d="" fill="#000000" transform="translate(0,0)"/>
<path d="" fill="#000000" transform="translate(0,0)"/>
<path d="" fill="#000000" transform="translate(0,0)"/>
<path d="" fill="#000000" transform="translate(0,0)"/>
<path d="" fill="#000000" transform="translate(0,0)"/>
<path d="" fill="#000000" transform="translate(0,0)"/>
<path d="" fill="#000000" transform="translate(0,0)"/>
<path d="" fill="#000000" transform="translate(0,0)"/>
<path d="" fill="#000000" transform="translate(0,0)"/>
<path d="" fill="#000000" transform="translate(0,0)"/>
<path d="" fill="#000000" transform="translate(0,0)"/>
<path d="" fill="#000000" transform="translate(0,0)"/>
</svg>
