<svg width="622" height="167" viewBox="0 0 622 167" fill="none" xmlns="http://www.w3.org/2000/svg">
<path d="M247.904 78.7975C240.157 78.7975 233.997 76.3627 229.422 71.4932C224.848 66.5499 222.561 60.0573 222.561 52.0152C222.561 43.9731 224.848 37.5173 229.422 32.6478C233.997 27.7045 240.157 25.2329 247.904 25.2329C254.766 25.2329 260.299 26.9667 264.505 30.4344C268.71 33.8283 271.108 38.4027 271.698 44.1576H262.07C260.742 37.296 256.02 33.8652 247.904 33.8652C242.961 33.8652 239.087 35.4884 236.284 38.7347C233.48 41.9073 232.078 46.3341 232.078 52.0152C232.078 57.6963 233.48 62.16 236.284 65.4063C239.087 68.5789 242.961 70.1652 247.904 70.1652C255.946 70.1652 260.668 66.8451 262.07 60.2048H271.698C271.108 65.8859 268.71 70.4234 264.505 73.8173C260.299 77.1374 254.766 78.7975 247.904 78.7975Z" fill="#1C1C1A"/>
<path d="M301.728 78.7975C293.834 78.7975 287.636 76.2889 283.135 71.2719C278.709 66.2548 276.495 59.8359 276.495 52.0152C276.495 44.2682 278.782 37.8493 283.357 32.7585C288.005 27.6677 294.202 25.1222 301.949 25.1222C305.934 25.1222 309.512 26.0445 312.684 27.889C315.857 29.7335 318.255 32.242 319.878 35.4146V26.4503H329.396V77.4694H319.878V68.5051C318.255 71.6039 315.783 74.1124 312.463 76.0307C309.143 77.8752 305.565 78.7975 301.728 78.7975ZM303.056 70.1652C308.442 70.1652 312.648 68.4313 315.673 64.9637C318.771 61.4222 320.321 57.106 320.321 52.0152C320.321 46.8506 318.771 42.5344 315.673 39.0667C312.648 35.5253 308.442 33.7545 303.056 33.7545C297.891 33.7545 293.76 35.4884 290.661 38.9561C287.562 42.35 286.013 46.703 286.013 52.0152C286.013 57.3274 287.562 61.6804 290.661 65.0743C293.76 68.4682 297.891 70.1652 303.056 70.1652Z" fill="#1C1C1A"/>
<path d="M362.909 69.3905C365.565 69.3905 367.705 69.206 369.328 68.8371V77.3588C367.115 77.8752 364.274 78.1335 360.806 78.1335C359.257 78.1335 357.892 78.0597 356.711 77.9121C355.605 77.7646 354.277 77.3588 352.727 76.6947C351.178 76.0307 349.887 75.1085 348.854 73.928C347.821 72.6737 346.936 70.9399 346.198 68.7265C345.46 66.4393 345.091 63.7094 345.091 60.5368V34.5292H335.905V26.4503H345.091V10.2924H354.719V26.4503H367.557V34.5292H354.719V58.4341C354.719 62.9347 355.383 65.8859 356.711 67.2877C358.04 68.6896 360.105 69.3905 362.909 69.3905Z" fill="#1C1C1A"/>
<path d="M397.06 78.7975C389.166 78.7975 382.968 76.2889 378.468 71.2719C374.041 66.2548 371.828 59.8359 371.828 52.0152C371.828 44.2682 374.115 37.8493 378.689 32.7585C383.337 27.6677 389.535 25.1222 397.282 25.1222C401.266 25.1222 404.844 26.0445 408.017 27.889C411.189 29.7335 413.587 32.242 415.21 35.4146V26.4503H424.728V77.4694H415.21V68.5051C413.587 71.6039 411.116 74.1124 407.795 76.0307C404.475 77.8752 400.897 78.7975 397.06 78.7975ZM398.388 70.1652C403.774 70.1652 407.98 68.4313 411.005 64.9637C414.104 61.4222 415.653 57.106 415.653 52.0152C415.653 46.8506 414.104 42.5344 411.005 39.0667C407.98 35.5253 403.774 33.7545 398.388 33.7545C393.224 33.7545 389.092 35.4884 385.993 38.9561C382.895 42.35 381.345 46.703 381.345 52.0152C381.345 57.3274 382.895 61.6804 385.993 65.0743C389.092 68.4682 393.224 70.1652 398.388 70.1652Z" fill="#1C1C1A"/>
<path d="M436.882 77.4694V0H446.51V77.4694H436.882Z" fill="#1C1C1A"/>
<path d="M495.239 26.4503H504.867V78.4655C504.867 86.5075 502.543 92.6313 497.895 96.8368C493.763 100.526 488.193 102.37 481.184 102.37C473.806 102.37 468.051 100.6 463.919 97.0581C460.157 93.8856 458.238 89.4956 458.164 83.8883H467.903C468.272 90.8237 472.662 94.2914 481.073 94.2914C490.517 94.2914 495.239 88.7947 495.239 77.8014V68.2838C491.845 75.2929 485.943 78.7975 477.532 78.7975C471.113 78.7975 466.28 76.8423 463.034 72.9319C459.788 68.9478 458.164 63.5987 458.164 56.8847V26.4503H467.793V54.8926C467.793 59.8359 468.752 63.6356 470.67 66.2917C472.662 68.874 476.019 70.1652 480.741 70.1652C485.389 70.1652 488.968 68.5051 491.476 65.185C493.985 61.7911 495.239 57.6225 495.239 52.6792V26.4503Z" fill="#1C1C1A"/>
<path d="M534.238 78.7975C527.819 78.7975 522.654 77.2112 518.744 74.0386C514.907 70.7923 512.989 66.845 512.989 62.1969H522.506C522.506 64.7792 523.613 66.9188 525.827 68.6158C528.04 70.239 530.991 71.0505 534.68 71.0505C537.558 71.0505 539.845 70.3865 541.542 69.0585C543.239 67.7304 544.087 65.9228 544.087 63.6356C544.087 60.0204 542.427 57.807 539.107 56.9954L525.495 53.4539C518.19 51.4618 514.538 46.8875 514.538 39.7308C514.538 35.5253 516.309 32.0576 519.85 29.3277C523.392 26.5241 528.003 25.1222 533.684 25.1222C539.882 25.1222 544.677 26.5609 548.071 29.4384C551.539 32.242 553.273 35.9311 553.273 40.5054H543.755C543.755 38.0707 542.833 36.1524 540.988 34.7506C539.144 33.275 536.562 32.5372 533.241 32.5372C530.585 32.5372 528.372 33.1643 526.601 34.4186C524.904 35.599 524.056 37.2222 524.056 39.2881C524.056 42.7557 525.937 44.9323 529.7 45.8176L542.427 49.3591C546.042 50.3182 548.846 52.0152 550.838 54.4499C552.83 56.8847 553.826 59.6515 553.826 62.7502C553.826 67.6197 552.092 71.5301 548.625 74.4813C545.157 77.3588 540.361 78.7975 534.238 78.7975Z" fill="#1C1C1A"/>
<path d="M567.35 17.7073C565.062 17.7073 563.181 16.9695 561.705 15.4939C560.23 14.0183 559.492 12.1738 559.492 9.96036C559.492 7.74694 560.23 5.90243 561.705 4.42683C563.181 2.87744 565.062 2.10274 567.35 2.10274C569.563 2.10274 571.408 2.87744 572.883 4.42683C574.359 5.90243 575.097 7.74694 575.097 9.96036C575.097 12.1738 574.359 14.0183 572.883 15.4939C571.408 16.9695 569.563 17.7073 567.35 17.7073ZM562.48 77.4694V26.4503H572.108V77.4694H562.48Z" fill="#1C1C1A"/>
<path d="M601.47 78.7975C595.051 78.7975 589.886 77.2112 585.976 74.0386C582.139 70.7923 580.221 66.845 580.221 62.1969H589.739C589.739 64.7792 590.846 66.9188 593.059 68.6158C595.272 70.239 598.224 71.0505 601.913 71.0505C604.79 71.0505 607.077 70.3865 608.774 69.0585C610.471 67.7304 611.32 65.9228 611.32 63.6356C611.32 60.0204 609.66 57.807 606.339 56.9954L592.727 53.4539C585.423 51.4618 581.771 46.8875 581.771 39.7308C581.771 35.5253 583.541 32.0576 587.083 29.3277C590.624 26.5241 595.235 25.1222 600.917 25.1222C607.114 25.1222 611.91 26.5609 615.304 29.4384C618.771 32.242 620.505 35.9311 620.505 40.5054H610.988C610.988 38.0707 610.065 36.1524 608.221 34.7506C606.376 33.275 603.794 32.5372 600.474 32.5372C597.818 32.5372 595.604 33.1643 593.834 34.4186C592.137 35.599 591.288 37.2222 591.288 39.2881C591.288 42.7557 593.17 44.9323 596.932 45.8176L609.66 49.3591C613.275 50.3182 616.078 52.0152 618.07 54.4499C620.063 56.8847 621.059 59.6515 621.059 62.7502C621.059 67.6197 619.325 71.5301 615.857 74.4813C612.389 77.3588 607.594 78.7975 601.47 78.7975Z" fill="#1C1C1A"/>
<path fill-rule="evenodd" clip-rule="evenodd" d="M0 0H32C32 0 32.2666 76.6152 108.8 76.6152C44.8005 76.6152 44.8 0 44.8 0H76.8C76.8 0 70.4 70.2308 121.6 70.2306C82.7171 70.2307 89.6 0 89.6 0H121.6C121.6 0 96 76.6152 160 76.6154H192V89.3844H160C96 89.3844 121.6 166 121.6 166H89.6C89.6 166 82.7168 95.7692 121.6 95.7691C70.4 95.7692 76.8005 166 76.8005 166H44.8005C44.8005 166 44.8 89.3844 108.8 89.3844C32.2666 89.3844 32.0005 166 32.0005 166H0.00054176C0.00054176 166 0 82.9998 89.6 82.9998C0 82.9998 0 0 0 0Z" fill="#1C1C1A"/>
<path d="M499.737 129.7C504.083 129.7 507.796 130.94 510.577 133.165C513.359 135.391 515.19 138.588 515.794 142.467L515.848 142.812H508.71L508.652 142.588C507.575 138.404 504.222 136.172 499.946 136.172C496.925 136.172 494.394 137.327 492.615 139.372C490.833 141.421 489.785 144.386 489.785 148.035C489.785 151.653 490.765 154.602 492.479 156.641C494.187 158.674 496.647 159.828 499.667 159.828C504.224 159.828 507.581 157.453 508.725 153.543L508.787 153.327H515.926L515.863 153.68C514.51 161.25 508.023 166.3 499.667 166.3C494.572 166.3 490.323 164.489 487.349 161.294C484.376 158.101 482.7 153.548 482.7 148.104C482.7 142.694 484.412 138.092 487.408 134.839C490.406 131.584 494.673 129.7 499.737 129.7ZM539.036 129.77C549.385 129.77 557.049 137.316 557.049 148.035C557.049 158.754 549.385 166.3 539.036 166.3C528.618 166.3 520.952 158.755 520.952 148.035C520.952 137.315 528.618 129.77 539.036 129.77ZM604.891 129.7C609.809 129.7 613.901 131.405 616.763 134.416C619.623 137.426 621.23 141.716 621.23 146.847V149.593H620.931L594.895 149.662C595.175 153.061 596.21 155.674 597.907 157.448C599.653 159.273 602.13 160.248 605.309 160.248C607.815 160.248 609.865 159.731 611.417 158.756C612.964 157.784 614.036 156.344 614.574 154.454L614.637 154.236H621.376L621.293 154.603C620.442 158.336 618.555 161.268 615.797 163.264C613.041 165.257 609.437 166.3 605.17 166.3C600.073 166.3 595.755 164.453 592.713 161.243C589.672 158.034 587.923 153.483 587.923 148.104C587.923 142.694 589.635 138.092 592.622 134.839C595.611 131.584 599.861 129.7 604.891 129.7ZM539.036 136.242C535.802 136.242 533.095 137.451 531.193 139.518C529.29 141.586 528.178 144.534 528.178 148.035C528.178 151.536 529.29 154.483 531.193 156.552C533.095 158.618 535.802 159.828 539.036 159.828C542.234 159.828 544.942 158.619 546.853 156.552C548.765 154.483 549.894 151.535 549.894 148.035C549.894 144.535 548.765 141.588 546.853 139.519C544.942 137.451 542.234 136.242 539.036 136.242ZM604.891 135.822C602.094 135.822 599.835 136.659 598.174 138.206C596.575 139.695 595.505 141.868 595.059 144.659H614.069C614.006 142.03 613.116 139.858 611.591 138.329C610.008 136.743 607.718 135.822 604.891 135.822ZM584.832 137.011H581.604C578.561 137.011 576.135 137.935 574.469 139.63C572.802 141.326 571.861 143.829 571.861 147.057V165.461H564.706V130.749H571.419L571.441 131.024L571.768 135.061C573.433 131.964 576.732 129.98 581.045 129.979C582.259 129.979 583.258 130.123 584.594 130.405L584.832 130.456V137.011Z" fill="#1C1C1A" stroke="#1C1C1A" stroke-width="0.6"/>
</svg>
