<svg width="684" height="236" viewBox="0 0 684 236" fill="none" xmlns="http://www.w3.org/2000/svg">
<path d="M278.904 106.797C271.157 106.797 264.997 104.363 260.422 99.4932C255.848 94.5499 253.561 88.0573 253.561 80.0152C253.561 71.9731 255.848 65.5173 260.422 60.6478C264.997 55.7045 271.157 53.2329 278.904 53.2329C285.766 53.2329 291.299 54.9667 295.505 58.4344C299.71 61.8283 302.108 66.4027 302.698 72.1576H293.07C291.742 65.296 287.02 61.8652 278.904 61.8652C273.961 61.8652 270.087 63.4884 267.284 66.7347C264.48 69.9073 263.078 74.3341 263.078 80.0152C263.078 85.6963 264.48 90.16 267.284 93.4063C270.087 96.5789 273.961 98.1652 278.904 98.1652C286.946 98.1652 291.668 94.8451 293.07 88.2048H302.698C302.108 93.8859 299.71 98.4234 295.505 101.817C291.299 105.137 285.766 106.797 278.904 106.797Z" fill="#1C1C1A"/>
<path d="M332.728 106.797C324.834 106.797 318.636 104.289 314.135 99.2719C309.709 94.2548 307.495 87.8359 307.495 80.0152C307.495 72.2682 309.782 65.8493 314.357 60.7585C319.005 55.6677 325.202 53.1222 332.949 53.1222C336.934 53.1222 340.512 54.0445 343.684 55.889C346.857 57.7335 349.255 60.242 350.878 63.4146V54.4503H360.396V105.469H350.878V96.5051C349.255 99.6039 346.783 102.112 343.463 104.031C340.143 105.875 336.565 106.797 332.728 106.797ZM334.056 98.1652C339.442 98.1652 343.648 96.4313 346.673 92.9637C349.771 89.4222 351.321 85.106 351.321 80.0152C351.321 74.8506 349.771 70.5344 346.673 67.0667C343.648 63.5253 339.442 61.7545 334.056 61.7545C328.891 61.7545 324.76 63.4884 321.661 66.9561C318.562 70.35 317.013 74.703 317.013 80.0152C317.013 85.3274 318.562 89.6804 321.661 93.0743C324.76 96.4682 328.891 98.1652 334.056 98.1652Z" fill="#1C1C1A"/>
<path d="M393.909 97.3905C396.565 97.3905 398.705 97.206 400.328 96.8371V105.359C398.115 105.875 395.274 106.133 391.806 106.133C390.257 106.133 388.892 106.06 387.711 105.912C386.605 105.765 385.277 105.359 383.727 104.695C382.178 104.031 380.887 103.108 379.854 101.928C378.821 100.674 377.936 98.9399 377.198 96.7265C376.46 94.4393 376.091 91.7094 376.091 88.5368V62.5292H366.905V54.4503H376.091V38.2924H385.719V54.4503H398.557V62.5292H385.719V86.4341C385.719 90.9347 386.383 93.8859 387.711 95.2877C389.04 96.6896 391.105 97.3905 393.909 97.3905Z" fill="#1C1C1A"/>
<path d="M428.06 106.797C420.166 106.797 413.968 104.289 409.468 99.2719C405.041 94.2548 402.828 87.8359 402.828 80.0152C402.828 72.2682 405.115 65.8493 409.689 60.7585C414.337 55.6677 420.535 53.1222 428.282 53.1222C432.266 53.1222 435.844 54.0445 439.017 55.889C442.189 57.7335 444.587 60.242 446.21 63.4146V54.4503H455.728V105.469H446.21V96.5051C444.587 99.6039 442.116 102.112 438.795 104.031C435.475 105.875 431.897 106.797 428.06 106.797ZM429.388 98.1652C434.774 98.1652 438.98 96.4313 442.005 92.9637C445.104 89.4222 446.653 85.106 446.653 80.0152C446.653 74.8506 445.104 70.5344 442.005 67.0667C438.98 63.5253 434.774 61.7545 429.388 61.7545C424.224 61.7545 420.092 63.4884 416.993 66.9561C413.895 70.35 412.345 74.703 412.345 80.0152C412.345 85.3274 413.895 89.6804 416.993 93.0743C420.092 96.4682 424.224 98.1652 429.388 98.1652Z" fill="#1C1C1A"/>
<path d="M467.882 105.469V28H477.51V105.469H467.882Z" fill="#1C1C1A"/>
<path d="M526.239 54.4503H535.867V106.465C535.867 114.508 533.543 120.631 528.895 124.837C524.763 128.526 519.193 130.37 512.184 130.37C504.806 130.37 499.051 128.6 494.919 125.058C491.157 121.886 489.238 117.496 489.164 111.888H498.903C499.272 118.824 503.662 122.291 512.073 122.291C521.517 122.291 526.239 116.795 526.239 105.801V96.2838C522.845 103.293 516.943 106.797 508.532 106.797C502.113 106.797 497.28 104.842 494.034 100.932C490.788 96.9478 489.164 91.5987 489.164 84.8847V54.4503H498.793V82.8926C498.793 87.8359 499.752 91.6356 501.67 94.2917C503.662 96.874 507.019 98.1652 511.741 98.1652C516.389 98.1652 519.968 96.5051 522.476 93.185C524.985 89.7911 526.239 85.6225 526.239 80.6792V54.4503Z" fill="#1C1C1A"/>
<path d="M565.238 106.797C558.819 106.797 553.654 105.211 549.744 102.039C545.907 98.7923 543.989 94.845 543.989 90.1969H553.506C553.506 92.7792 554.613 94.9188 556.827 96.6158C559.04 98.239 561.991 99.0505 565.68 99.0505C568.558 99.0505 570.845 98.3865 572.542 97.0585C574.239 95.7304 575.087 93.9228 575.087 91.6356C575.087 88.0204 573.427 85.807 570.107 84.9954L556.495 81.4539C549.19 79.4618 545.538 74.8875 545.538 67.7308C545.538 63.5253 547.309 60.0576 550.85 57.3277C554.392 54.5241 559.003 53.1222 564.684 53.1222C570.882 53.1222 575.677 54.5609 579.071 57.4384C582.539 60.242 584.273 63.9311 584.273 68.5054H574.755C574.755 66.0707 573.833 64.1524 571.988 62.7506C570.144 61.275 567.562 60.5372 564.241 60.5372C561.585 60.5372 559.372 61.1643 557.601 62.4186C555.904 63.599 555.056 65.2222 555.056 67.2881C555.056 70.7557 556.937 72.9323 560.7 73.8176L573.427 77.3591C577.042 78.3182 579.846 80.0152 581.838 82.4499C583.83 84.8847 584.826 87.6515 584.826 90.7502C584.826 95.6197 583.092 99.5301 579.625 102.481C576.157 105.359 571.361 106.797 565.238 106.797Z" fill="#1C1C1A"/>
<path d="M598.35 45.7073C596.062 45.7073 594.181 44.9695 592.705 43.4939C591.23 42.0183 590.492 40.1738 590.492 37.9604C590.492 35.7469 591.23 33.9024 592.705 32.4268C594.181 30.8774 596.062 30.1027 598.35 30.1027C600.563 30.1027 602.408 30.8774 603.883 32.4268C605.359 33.9024 606.097 35.7469 606.097 37.9604C606.097 40.1738 605.359 42.0183 603.883 43.4939C602.408 44.9695 600.563 45.7073 598.35 45.7073ZM593.48 105.469V54.4503H603.108V105.469H593.48Z" fill="#1C1C1A"/>
<path d="M632.47 106.797C626.051 106.797 620.886 105.211 616.976 102.039C613.139 98.7923 611.221 94.845 611.221 90.1969H620.739C620.739 92.7792 621.846 94.9188 624.059 96.6158C626.272 98.239 629.224 99.0505 632.913 99.0505C635.79 99.0505 638.077 98.3865 639.774 97.0585C641.471 95.7304 642.32 93.9228 642.32 91.6356C642.32 88.0204 640.66 85.807 637.339 84.9954L623.727 81.4539C616.423 79.4618 612.771 74.8875 612.771 67.7308C612.771 63.5253 614.541 60.0576 618.083 57.3277C621.624 54.5241 626.235 53.1222 631.917 53.1222C638.114 53.1222 642.91 54.5609 646.304 57.4384C649.771 60.242 651.505 63.9311 651.505 68.5054H641.988C641.988 66.0707 641.065 64.1524 639.221 62.7506C637.376 61.275 634.794 60.5372 631.474 60.5372C628.818 60.5372 626.604 61.1643 624.834 62.4186C623.137 63.599 622.288 65.2222 622.288 67.2881C622.288 70.7557 624.17 72.9323 627.932 73.8176L640.66 77.3591C644.275 78.3182 647.078 80.0152 649.07 82.4499C651.063 84.8847 652.059 87.6515 652.059 90.7502C652.059 95.6197 650.325 99.5301 646.857 102.481C643.389 105.359 638.594 106.797 632.47 106.797Z" fill="#1C1C1A"/>
<path fill-rule="evenodd" clip-rule="evenodd" d="M31 28H63C63 28 63.2666 104.615 139.8 104.615C75.8005 104.615 75.8 28 75.8 28H107.8C107.8 28 101.4 98.2308 152.6 98.2306C113.717 98.2307 120.6 28 120.6 28H152.6C152.6 28 127 104.615 191 104.615H223V117.384H191C127 117.384 152.6 194 152.6 194H120.6C120.6 194 113.717 123.769 152.6 123.769C101.4 123.769 107.801 194 107.801 194H75.8005C75.8005 194 75.8 117.384 139.8 117.384C63.2666 117.384 63.0005 194 63.0005 194H31.0005C31.0005 194 31 111 120.6 111C31 111 31 28 31 28Z" fill="#1C1C1A"/>
<path d="M588.659 156.7C594.078 156.7 598.375 159.009 600.789 162.989L601.213 157.984L601.236 157.71H607.877V191.828C607.877 197.443 606.142 202.067 603.009 205.288C599.874 208.51 595.369 210.3 589.887 210.3C585.028 210.3 580.913 208.932 577.845 206.41C574.775 203.888 572.775 200.229 572.115 195.693L572.065 195.351H579.454L579.495 195.601C579.917 198.131 581.074 200.115 582.831 201.47C584.59 202.827 586.977 203.57 589.887 203.57C593.142 203.57 595.805 202.512 597.653 200.657C599.502 198.803 600.562 196.125 600.562 192.838V186.818C598.049 190.492 593.603 192.634 588.37 192.634C583.27 192.634 579.09 190.671 576.188 187.441C573.288 184.215 571.679 179.742 571.679 174.739C571.679 169.7 573.306 165.19 576.251 161.937C579.199 158.68 583.452 156.7 588.659 156.7ZM366.33 156.7C370.828 156.7 374.67 157.978 377.547 160.271C380.426 162.566 382.321 165.862 382.945 169.861L382.999 170.207H375.629L375.571 169.982C374.455 165.663 370.979 163.358 366.547 163.357C363.415 163.357 360.791 164.549 358.947 166.661C357.1 168.777 356.016 171.839 356.016 175.604C356.016 179.338 357.03 182.382 358.806 184.487C360.577 186.587 363.127 187.779 366.258 187.779C370.981 187.779 374.46 185.326 375.646 181.288L375.709 181.073H383.08L383.017 181.426C381.616 189.231 374.904 194.436 366.258 194.437C360.985 194.437 356.588 192.569 353.511 189.275C350.435 185.983 348.7 181.29 348.7 175.676C348.7 170.096 350.472 165.351 353.572 161.997C356.675 158.641 361.089 156.7 366.33 156.7ZM406.985 156.772C417.694 156.773 425.626 164.551 425.626 175.604C425.626 186.658 417.694 194.436 406.985 194.437C396.206 194.437 388.273 186.659 388.272 175.604C388.272 164.55 396.205 156.772 406.985 156.772ZM483.282 156.7C488.372 156.7 492.606 158.458 495.566 161.562C498.526 164.664 500.189 169.087 500.189 174.378V177.201L499.891 177.202L472.921 177.273C473.211 180.785 474.282 183.486 476.043 185.32C477.852 187.205 480.421 188.212 483.715 188.212C486.312 188.212 488.437 187.679 490.046 186.671C491.65 185.667 492.761 184.179 493.319 182.228L493.381 182.01H500.338L500.254 182.377C499.373 186.226 497.422 189.249 494.568 191.306C491.717 193.36 487.987 194.437 483.57 194.437C478.296 194.436 473.829 192.532 470.681 189.223C467.534 185.914 465.724 181.222 465.724 175.676C465.724 170.096 467.496 165.35 470.587 161.997C473.68 158.642 478.077 156.7 483.282 156.7ZM549.159 156.7C553.577 156.7 557.323 157.867 559.967 160.275C562.615 162.688 564.117 166.31 564.117 171.134V193.57H557.776L557.743 193.309L557.142 188.568C555.004 192.231 550.335 194.437 544.971 194.437C541.125 194.437 538.032 193.357 535.897 191.43C533.759 189.5 532.612 186.746 532.612 183.464C532.612 180.137 533.856 177.419 536.175 175.456C538.485 173.501 541.839 172.316 546.03 171.988L556.874 171.145V170.412C556.874 167.517 556.01 165.611 554.614 164.421C553.21 163.224 551.215 162.708 548.87 162.708C546.057 162.708 543.891 163.331 542.436 164.44C540.991 165.541 540.216 167.144 540.216 169.187V169.486H533.695V169.187C533.695 165.419 535.252 162.285 537.978 160.101C540.697 157.921 544.56 156.7 549.159 156.7ZM633.32 156.7C638.41 156.7 642.644 158.457 645.604 161.562C648.564 164.664 650.227 169.087 650.228 174.378V177.201L649.929 177.202L622.959 177.273C623.249 180.785 624.32 183.486 626.081 185.32C627.891 187.205 630.459 188.212 633.753 188.212C636.35 188.212 638.475 187.679 640.084 186.671C641.688 185.667 642.799 184.179 643.357 182.228L643.42 182.01H650.376L650.292 182.377C649.411 186.226 647.46 189.249 644.606 191.306C641.755 193.36 638.025 194.437 633.608 194.437C628.335 194.436 623.867 192.532 620.719 189.223C617.572 185.914 615.762 181.222 615.762 175.676C615.762 170.096 617.534 165.35 620.625 161.997C623.718 158.642 628.115 156.7 633.32 156.7ZM435.311 157.71L435.386 157.9L443.111 177.586L443.114 177.591H443.113C444.156 180.408 445.043 182.972 445.644 185.015C446.277 182.854 447.28 180.238 448.33 177.585V177.584L456.201 157.898L456.276 157.71H464.007L463.833 158.125L449.103 193.387L449.025 193.57H441.908L441.832 193.383L427.607 158.122L427.44 157.71H435.311ZM548.244 177.201L548.243 177.2C545.276 177.486 543.232 178.199 541.935 179.229C540.652 180.247 540.072 181.599 540.072 183.248C540.072 185.041 540.724 186.353 541.876 187.227C543.041 188.11 544.755 188.572 546.921 188.572C550.067 188.572 552.564 187.55 554.275 185.745C555.989 183.938 556.946 181.315 556.946 178.056V176.506L548.244 177.201ZM406.985 163.43C403.634 163.43 400.827 164.678 398.856 166.812C396.884 168.948 395.731 171.991 395.731 175.604C395.732 179.218 396.884 182.261 398.856 184.396C400.827 186.53 403.634 187.779 406.985 187.779C410.3 187.779 413.107 186.53 415.087 184.396C417.069 182.259 418.238 179.217 418.238 175.604C418.238 171.992 417.069 168.949 415.087 166.812C413.107 164.678 410.3 163.43 406.985 163.43ZM589.598 163.213C586.286 163.213 583.661 164.477 581.861 166.519C580.058 168.564 579.066 171.411 579.066 174.595C579.066 177.851 580.077 180.734 581.881 182.798C583.682 184.858 586.288 186.12 589.525 186.12C592.88 186.12 595.557 184.924 597.399 182.901C599.244 180.876 600.273 177.996 600.273 174.595C600.273 171.264 599.28 168.42 597.463 166.413C595.649 164.41 592.989 163.213 589.598 163.213ZM633.32 162.997C630.422 162.997 628.08 163.86 626.357 165.458C624.698 166.998 623.589 169.245 623.128 172.131H642.834C642.771 169.412 641.849 167.167 640.266 165.586C638.625 163.947 636.25 162.997 633.32 162.997ZM483.282 162.997C480.384 162.997 478.042 163.86 476.319 165.458C474.66 166.998 473.551 169.245 473.09 172.131H492.796C492.733 169.412 491.811 167.167 490.228 165.586C488.587 163.947 486.212 162.997 483.282 162.997ZM528.989 164.223H525.656C522.504 164.223 519.988 165.177 518.261 166.928C516.533 168.679 515.559 171.264 515.559 174.595V193.57H508.171V157.781H515.102L515.124 158.058L515.465 162.257C517.182 159.047 520.603 156.988 525.079 156.988C526.335 156.988 527.368 157.137 528.751 157.428L528.989 157.478V164.223Z" fill="#1C1C1A" stroke="#1C1C1A" stroke-width="0.6"/>
</svg>
